<?xml version="1.0" encoding="utf-8"?>
<!-- Generator: Adobe Illustrator 24.2.1, SVG Export Plug-In . SVG Version: 6.00 Build 0)  -->
<svg version="1.1" id="Layer_1" xmlns="http://www.w3.org/2000/svg" xmlns:xlink="http://www.w3.org/1999/xlink" x="0px" y="0px"
	 viewBox="0 0 980 492" style="enable-background:new 0 0 980 492;" xml:space="preserve">
<style type="text/css">
	.st0{fill:url(#SVGID_1_);}
	.st1{fill:url(#SVGID_2_);}
	.st2{fill:url(#SVGID_3_);}
	.st3{fill:url(#SVGID_4_);}
	.st4{fill:url(#SVGID_5_);}
	.st5{fill:url(#SVGID_6_);}
	.st6{fill:#23345B;}
	.st7{fill:#989898;}
	.st8{fill:url(#SVGID_7_);}
	.st9{fill:url(#SVGID_8_);}
	.st10{fill:url(#SVGID_9_);}
	.st11{fill:url(#SVGID_10_);}
</style>
<linearGradient id="SVGID_1_" gradientUnits="userSpaceOnUse" x1="360.8259" y1="409.88" x2="360.8259" y2="300.5917">
	<stop  offset="0.2626" style="stop-color:#2955ED"/>
	<stop  offset="1" style="stop-color:#5D93FF"/>
</linearGradient>
<path class="st0" d="M370.59,326.28h-19.53v-18.73h19.53V326.28z M351.06,401.19V334.3h19.53v66.89H351.06z"/>
<linearGradient id="SVGID_2_" gradientUnits="userSpaceOnUse" x1="88.1797" y1="409.88" x2="88.1797" y2="300.5917">
	<stop  offset="0.2626" style="stop-color:#2955ED"/>
	<stop  offset="1" style="stop-color:#5D93FF"/>
</linearGradient>
<path class="st1" d="M158.68,307.55v93.65h-19.53v-73.98l-39.87,73.98H77.08l-39.87-73.98v73.98H17.68v-93.65h31.17l39.33,73.04
	l39.33-73.04H158.68z"/>
<linearGradient id="SVGID_3_" gradientUnits="userSpaceOnUse" x1="208.7842" y1="409.88" x2="208.7842" y2="300.5917">
	<stop  offset="0.2626" style="stop-color:#2955ED"/>
	<stop  offset="1" style="stop-color:#5D93FF"/>
</linearGradient>
<path class="st2" d="M239.55,336.71c3.25,1.52,5.93,3.72,8.03,6.62c2.09,2.9,3.19,6.22,3.28,9.97v25.55
	c-0.09,4.19-1.12,7.98-3.08,11.37c-1.96,3.39-4.59,6.07-7.89,8.03c-3.3,1.96-7.05,2.94-11.24,2.94h-39.73
	c-4.19,0-7.94-0.98-11.24-2.94c-3.3-1.96-5.93-4.64-7.89-8.03c-1.96-3.39-2.99-7.18-3.08-11.37v-17.66h19.53v2.27v9.5
	c0,3.03,0.56,5.53,1.67,7.49c1.11,1.96,3.23,2.94,6.35,2.94h29.03c3.12,0,5.24-0.98,6.35-2.94c1.11-1.96,1.67-4.46,1.67-7.49v-9.5
	c0.09-3.48-0.4-6.22-1.47-8.23s-3.08-3.01-6.02-3.01h-57.12c0.27-3.57,1.47-6.71,3.61-9.43c2.14-2.72,4.82-4.79,8.03-6.22
	c3.21-1.43,6.42-2.14,9.63-2.14h41.61C232.98,334.44,236.3,335.2,239.55,336.71z"/>
<linearGradient id="SVGID_4_" gradientUnits="userSpaceOnUse" x1="300.959" y1="409.88" x2="300.959" y2="300.5917">
	<stop  offset="0.2626" style="stop-color:#2955ED"/>
	<stop  offset="1" style="stop-color:#5D93FF"/>
</linearGradient>
<path class="st3" d="M332.06,337.25c3.3,1.96,5.93,4.64,7.89,8.03c1.96,3.39,2.99,7.18,3.08,11.37v25.69
	c-0.09,3.75-1.18,7.07-3.28,9.97c-2.1,2.9-4.77,5.11-8.03,6.62c-3.26,1.52-6.58,2.27-9.97,2.27h-62.88V300.86h19.53v82.54h37.59
	c5.17,0,7.67-3.3,7.49-9.9v-10.97c0-3.12-0.56-5.64-1.67-7.56c-1.12-1.92-3.23-2.88-6.35-2.88h-28.09V334.3h33.45
	C325.02,334.3,328.76,335.29,332.06,337.25z"/>
<linearGradient id="SVGID_5_" gradientUnits="userSpaceOnUse" x1="388.384" y1="409.88" x2="388.384" y2="300.5917">
	<stop  offset="0.2626" style="stop-color:#2955ED"/>
	<stop  offset="1" style="stop-color:#5D93FF"/>
</linearGradient>
<path class="st4" d="M378.62,401.19V300.86h19.53v100.34H378.62z"/>
<linearGradient id="SVGID_6_" gradientUnits="userSpaceOnUse" x1="448.3176" y1="409.88" x2="448.3176" y2="300.5917">
	<stop  offset="0.2626" style="stop-color:#2955ED"/>
	<stop  offset="1" style="stop-color:#5D93FF"/>
</linearGradient>
<path class="st5" d="M434.67,362.66l35.32-5.89c0-1.42-0.63-2.54-1.87-3.34c-1.25-0.8-2.86-1.2-4.82-1.2h-30.1
	c-2.94,0-4.95,1-6.02,3.01s-1.56,4.75-1.47,8.23v9.5c0,3.03,0.56,5.53,1.67,7.49c1.11,1.96,3.23,2.94,6.35,2.94h46.82v17.79h-52.17
	c-4.19,0-7.94-0.98-11.24-2.94c-3.3-1.96-5.93-4.64-7.89-8.03c-1.96-3.39-2.99-7.18-3.08-11.37V353.3c0.09-3.75,1.18-7.07,3.28-9.97
	c2.09-2.9,4.77-5.1,8.03-6.62c3.25-1.52,6.58-2.27,9.97-2.27h41.61c3.39,0,6.71,0.76,9.97,2.27c3.25,1.52,5.93,3.72,8.03,6.62
	c2.1,2.9,3.19,6.22,3.28,9.97l0.13,3.61c0,8.38-3.88,13.07-11.64,14.05l-44.15,6.69V362.66z"/>
<g>
	<path class="st6" d="M505.47,307.55h22.88l38.8,75.85l38.8-75.85h23.01l-48.03,93.65h-27.56L505.47,307.55z"/>
	<path class="st6" d="M656.51,326.28h-19.53v-18.73h19.53V326.28z M636.98,401.19V334.3h19.53v66.89H636.98z"/>
	<path class="st6" d="M738.58,362.53c3.43,1.96,6.02,4.55,7.76,7.76s2.61,6.6,2.61,10.17c0,3.57-0.85,6.94-2.54,10.1
		c-1.7,3.17-4.24,5.73-7.63,7.69c-3.39,1.96-7.49,2.94-12.31,2.94H664.8V383.4h56.32c2.5,0,4.42-0.38,5.75-1.14
		c1.34-0.76,2.01-1.67,2.01-2.74s-0.72-2.01-2.14-2.81c-1.43-0.8-3.39-1.2-5.89-1.2h-33.85c-4.82,0-8.92-0.98-12.31-2.94
		c-3.39-1.96-5.93-4.5-7.63-7.63c-1.7-3.12-2.54-6.47-2.54-10.03c0-3.57,0.87-6.96,2.61-10.17s4.33-5.8,7.76-7.76
		c3.43-1.96,7.56-2.94,12.38-2.94H744v17.79h-51.37c-2.5,0-4.46,0.4-5.89,1.2c-1.43,0.8-2.14,1.74-2.14,2.81
		c0,0.98,0.67,1.85,2.01,2.61c1.34,0.76,3.25,1.14,5.75,1.14h33.85C731.03,359.59,735.15,360.57,738.58,362.53z"/>
	<path class="st6" d="M776.51,326.28h-19.53v-18.73h19.53V326.28z M756.98,401.19V334.3h19.53v66.89H756.98z"/>
	<path class="st6" d="M857.38,336.71c3.25,1.52,5.93,3.72,8.03,6.62c2.09,2.9,3.19,6.22,3.28,9.97v25.55
		c-0.09,4.19-1.12,7.98-3.08,11.37c-1.96,3.39-4.59,6.07-7.89,8.03c-3.3,1.96-7.05,2.94-11.24,2.94h-39.73
		c-4.19,0-7.94-0.98-11.24-2.94c-3.3-1.96-5.93-4.64-7.89-8.03c-1.96-3.39-2.99-7.18-3.08-11.37v-17.66h19.53v2.27v9.5
		c0,3.03,0.56,5.53,1.67,7.49c1.11,1.96,3.23,2.94,6.36,2.94h29.03c3.12,0,5.24-0.98,6.35-2.94c1.11-1.96,1.67-4.46,1.67-7.49v-9.5
		c0.09-3.48-0.4-6.22-1.47-8.23s-3.08-3.01-6.02-3.01h-57.13c0.27-3.57,1.47-6.71,3.61-9.43c2.14-2.72,4.82-4.79,8.03-6.22
		c3.21-1.43,6.42-2.14,9.63-2.14h41.61C850.8,334.44,854.13,335.2,857.38,336.71z"/>
	<path class="st6" d="M876.71,401.19V334.3h19.53v66.89H876.71z M939.66,354.97c-1.12-1.92-3.23-2.88-6.36-2.88h-28.09V334.3h33.45
		c4.19,0,7.94,0.98,11.24,2.94c3.3,1.96,5.93,4.64,7.89,8.03c1.96,3.39,2.99,7.18,3.08,11.37v44.55h-19.53v-38.66
		C941.33,359.41,940.77,356.89,939.66,354.97z"/>
</g>
<g>
	<path class="st7" d="M160.21,472.46h-4.63v-26.68c0-2.11,0.13-4.69,0.39-7.74h-0.11c-0.44,1.79-0.84,3.08-1.19,3.86l-13.59,30.57
		h-2.27l-13.56-30.34c-0.39-0.89-0.79-2.25-1.19-4.08h-0.11c0.15,1.59,0.22,4.19,0.22,7.79v26.63h-4.49v-39.77h6.16l12.2,27.74
		c0.94,2.13,1.55,3.72,1.83,4.77h0.17c0.79-2.18,1.43-3.81,1.91-4.88l12.45-27.63h5.82V472.46z"/>
	<path class="st7" d="M208.28,473.12c-5.64,0-10.16-1.86-13.55-5.58s-5.09-8.55-5.09-14.51c0-6.4,1.73-11.5,5.19-15.31
		c3.46-3.81,8.16-5.71,14.12-5.71c5.49,0,9.92,1.85,13.27,5.55c3.36,3.7,5.03,8.53,5.03,14.51c0,6.49-1.72,11.62-5.16,15.39
		C218.65,471.24,214.05,473.12,208.28,473.12z M208.61,436.23c-4.18,0-7.57,1.51-10.18,4.52s-3.91,6.97-3.91,11.87
		c0,4.9,1.27,8.84,3.81,11.83s5.86,4.48,9.94,4.48c4.36,0,7.8-1.42,10.32-4.27c2.51-2.85,3.77-6.83,3.77-11.96
		c0-5.25-1.22-9.31-3.66-12.18S212.9,436.23,208.61,436.23z"/>
	<path class="st7" d="M256.66,472.46v-39.77h11.32c3.44,0,6.17,0.84,8.18,2.52c2.02,1.68,3.02,3.87,3.02,6.57
		c0,2.26-0.61,4.22-1.83,5.88c-1.22,1.66-2.9,2.85-5.05,3.55v0.11c2.68,0.31,4.83,1.33,6.43,3.04c1.61,1.71,2.41,3.93,2.41,6.67
		c0,3.4-1.22,6.16-3.66,8.27s-5.52,3.16-9.24,3.16H256.66z M261.32,436.9v12.84h4.77c2.55,0,4.56-0.61,6.02-1.84
		c1.46-1.23,2.19-2.96,2.19-5.2c0-3.86-2.54-5.8-7.63-5.8H261.32z M261.32,453.93v14.31h6.32c2.74,0,4.86-0.65,6.37-1.94
		c1.51-1.29,2.26-3.07,2.26-5.33c0-4.7-3.2-7.04-9.6-7.04H261.32z"/>
	<path class="st7" d="M319.35,432.68v3.99h-3.88v31.79h3.88v3.99h-12.43v-3.99h3.88v-31.79h-3.88v-3.99H319.35z"/>
	<path class="st7" d="M368.15,472.46h-20.64v-39.77h4.66v35.56h15.98V472.46z"/>
	<path class="st7" d="M416.92,472.46h-21.08v-39.77h20.19v4.22H400.5v13.23h14.37v4.19H400.5v13.92h16.42V472.46z"/>
	<path class="st7" d="M475.73,432.68L461,472.46h-5.13l-14.42-39.77h5.19l11.01,31.54c0.35,1.02,0.62,2.19,0.8,3.52h0.11
		c0.15-1.11,0.45-2.3,0.92-3.58l11.23-31.48H475.73z"/>
	<path class="st7" d="M511.57,432.68v3.99h-3.88v31.79h3.88v3.99h-12.43v-3.99h3.88v-31.79h-3.88v-3.99H511.57z"/>
	<path class="st7" d="M537.87,470.85v-5.49c0.63,0.55,1.38,1.05,2.26,1.5c0.88,0.44,1.8,0.82,2.77,1.12s1.95,0.54,2.93,0.71
		c0.98,0.17,1.89,0.25,2.72,0.25c2.87,0,5.01-0.53,6.42-1.59s2.12-2.59,2.12-4.59c0-1.07-0.24-2.01-0.71-2.8
		c-0.47-0.79-1.12-1.52-1.96-2.18s-1.82-1.29-2.95-1.89c-1.14-0.6-2.36-1.23-3.67-1.9c-1.39-0.7-2.68-1.42-3.88-2.14
		c-1.2-0.72-2.25-1.52-3.13-2.39s-1.59-1.85-2.09-2.95c-0.51-1.1-0.76-2.39-0.76-3.87c0-1.81,0.4-3.39,1.19-4.73
		c0.79-1.34,1.84-2.44,3.13-3.31c1.29-0.87,2.77-1.52,4.42-1.94c1.65-0.42,3.34-0.64,5.06-0.64c3.92,0,6.78,0.47,8.57,1.41v5.24
		c-2.35-1.63-5.36-2.44-9.04-2.44c-1.02,0-2.03,0.11-3.05,0.32c-1.02,0.21-1.92,0.56-2.72,1.04s-1.44,1.1-1.94,1.86
		c-0.5,0.76-0.75,1.68-0.75,2.77c0,1.02,0.19,1.9,0.57,2.63c0.38,0.74,0.94,1.42,1.68,2.03c0.74,0.61,1.64,1.2,2.7,1.77
		c1.06,0.57,2.29,1.2,3.68,1.89c1.42,0.7,2.77,1.44,4.05,2.22c1.28,0.78,2.39,1.64,3.36,2.58c0.96,0.94,1.72,1.99,2.29,3.13
		c0.56,1.15,0.85,2.46,0.85,3.94c0,1.96-0.38,3.62-1.15,4.98c-0.77,1.36-1.8,2.46-3.11,3.31s-2.81,1.47-4.51,1.84
		c-1.7,0.38-3.49,0.57-5.38,0.57c-0.63,0-1.41-0.05-2.33-0.15s-1.87-0.25-2.83-0.44c-0.96-0.19-1.87-0.43-2.73-0.72
		C539.08,471.52,538.39,471.2,537.87,470.85z"/>
	<path class="st7" d="M600.04,432.68v3.99h-3.88v31.79h3.88v3.99h-12.43v-3.99h3.88v-31.79h-3.88v-3.99H600.04z"/>
	<path class="st7" d="M644.23,473.12c-5.64,0-10.16-1.86-13.55-5.58c-3.39-3.72-5.09-8.55-5.09-14.51c0-6.4,1.73-11.5,5.19-15.31
		s8.16-5.71,14.12-5.71c5.49,0,9.92,1.85,13.27,5.55c3.36,3.7,5.03,8.53,5.03,14.51c0,6.49-1.72,11.62-5.16,15.39
		C654.6,471.24,650,473.12,644.23,473.12z M644.56,436.23c-4.18,0-7.57,1.51-10.18,4.52c-2.61,3.01-3.91,6.97-3.91,11.87
		c0,4.9,1.27,8.84,3.81,11.83c2.54,2.99,5.86,4.48,9.94,4.48c4.36,0,7.8-1.42,10.32-4.27s3.77-6.83,3.77-11.96
		c0-5.25-1.22-9.31-3.66-12.18C652.21,437.67,648.85,436.23,644.56,436.23z"/>
	<path class="st7" d="M724.67,472.46h-5.71l-20.47-31.7c-0.52-0.79-0.94-1.63-1.28-2.5h-0.17c0.15,0.85,0.22,2.67,0.22,5.46v28.74
		h-4.66v-39.77h6.05l19.92,31.2c0.83,1.29,1.37,2.18,1.61,2.66h0.11c-0.19-1.15-0.28-3.1-0.28-5.85v-28.01h4.66V472.46z"/>
	<path class="st7" d="M757.66,473.07c-0.85,0-1.58-0.31-2.18-0.92c-0.6-0.61-0.9-1.34-0.9-2.19s0.3-1.59,0.9-2.21
		s1.33-0.93,2.18-0.93c0.87,0,1.61,0.31,2.22,0.93s0.92,1.35,0.92,2.21s-0.3,1.58-0.92,2.19
		C759.27,472.76,758.53,473.07,757.66,473.07z"/>
	<path class="st7" d="M799.13,432.68v3.99h-3.88v31.79h3.88v3.99H786.7v-3.99h3.88v-31.79h-3.88v-3.99H799.13z"/>
	<path class="st7" d="M855.8,472.46h-5.55l-6.66-11.15c-0.61-1.04-1.2-1.92-1.77-2.65c-0.57-0.73-1.16-1.33-1.76-1.79
		s-1.25-0.8-1.94-1.01c-0.69-0.21-1.47-0.32-2.34-0.32h-3.83v16.92h-4.66v-39.77h11.87c1.74,0,3.34,0.22,4.81,0.65
		s2.75,1.1,3.83,1.98c1.08,0.89,1.93,1.99,2.54,3.31s0.92,2.87,0.92,4.65c0,1.39-0.21,2.66-0.62,3.81s-1.01,2.19-1.78,3.09
		c-0.77,0.91-1.69,1.68-2.77,2.32c-1.08,0.64-2.3,1.13-3.65,1.48v0.11c0.67,0.3,1.24,0.63,1.73,1.01c0.49,0.38,0.96,0.83,1.4,1.35
		c0.44,0.52,0.88,1.1,1.32,1.76c0.43,0.66,0.92,1.42,1.46,2.29L855.8,472.46z M831.95,436.9v14.42h6.32c1.17,0,2.24-0.18,3.23-0.53
		c0.99-0.35,1.84-0.85,2.57-1.51c0.72-0.66,1.29-1.46,1.69-2.41c0.41-0.95,0.61-2.02,0.61-3.2c0-2.13-0.69-3.79-2.07-4.98
		c-1.38-1.19-3.37-1.79-5.98-1.79H831.95z"/>
</g>
<rect x="17.84" y="448.79" class="st7" width="68.4" height="7.56"/>
<rect x="892.39" y="448.79" class="st7" width="68.4" height="7.56"/>
<linearGradient id="SVGID_7_" gradientUnits="userSpaceOnUse" x1="411.37" y1="211.16" x2="411.37" y2="-10.6608">
	<stop  offset="0" style="stop-color:#2955ED"/>
	<stop  offset="0.7067" style="stop-color:#5D93FF"/>
</linearGradient>
<path class="st8" d="M427.21,35.68h-31.68c-1.84,0-3.33,1.49-3.33,3.33s1.49,3.33,3.33,3.33h31.68c1.84,0,3.33-1.49,3.33-3.33
	S429.05,35.68,427.21,35.68z"/>
<linearGradient id="SVGID_8_" gradientUnits="userSpaceOnUse" x1="614.0093" y1="211.16" x2="614.0093" y2="-10.6608">
	<stop  offset="0" style="stop-color:#2955ED"/>
	<stop  offset="0.7067" style="stop-color:#5D93FF"/>
</linearGradient>
<path class="st9" d="M629.85,35.68h-31.68c-1.84,0-3.33,1.49-3.33,3.33s1.49,3.33,3.33,3.33h31.68c1.84,0,3.33-1.49,3.33-3.33
	S631.69,35.68,629.85,35.68z"/>
<linearGradient id="SVGID_9_" gradientUnits="userSpaceOnUse" x1="471.9938" y1="211.16" x2="471.9938" y2="-10.6608">
	<stop  offset="0" style="stop-color:#2955ED"/>
	<stop  offset="0.7067" style="stop-color:#5D93FF"/>
</linearGradient>
<path class="st10" d="M677.88,30.02c0-6.19-5.02-11.2-11.21-11.2c-0.17,0-0.33,0.02-0.5,0.03c-1.36-0.05-2.85-0.03-4.53,0.08h-84.48
	c-5.12,0-9.68,2.41-12.62,6.14l-0.01-0.01c0,0-1.41,1.55-4.07,6.97l-40.03,76.78L486.7,44.2c-1.93-3.91-7.31-14.57-11.35-20
	c-0.64-0.98-1.38-1.84-2.28-2.58c-0.05-0.05-0.11-0.1-0.16-0.14c0,0,0,0,0,0c-1.71-1.33-4.03-2.2-7.42-2.53v-0.04h-0.44
	c-1.73-0.14-3.71-0.15-6.04,0h-84.48c-5.12,0-9.68,2.41-12.62,6.14l-0.01-0.01c0,0-1.41,1.55-4.07,6.97l-39.85,76.44
	c-12.08-5.71-26.61-0.92-32.87,11.02v0c-6.27,11.97-1.89,26.69,9.74,33.34l-26.3,50.46c-0.71,1.25-1.22,2.44-1.59,3.54
	c-0.47,1.28-0.75,2.64-0.82,4.07c-0.14,2.09,0.24,3.36,0.24,3.36l0,0c1.26,6.32,6.83,11.08,13.52,11.08c0.36,0,0.72-0.03,1.08-0.05
	c0.18,0.02,0.36,0.05,0.54,0.05h72c0.09,0,0.17-0.02,0.25-0.03h6c0.27,0.01,0.55,0.03,0.82,0.03c0.34,0,0.68-0.01,1.01-0.03h0.07v0
	c8.08-0.36,15.13-4.7,19.23-11.11c0.09-0.13,0.17-0.26,0.25-0.4c0.5-0.82,0.95-1.67,1.35-2.54l72.61-139.29l-23.38,76.56l41.76,76.8
	h10.64h72h5.2l0.01-0.03h1.04c0.27,0.01,0.55,0.03,0.82,0.03c0.34,0,0.68-0.01,1.01-0.03h0.07v0c8.08-0.36,15.13-4.7,19.23-11.11
	c0.09-0.13,0.17-0.26,0.25-0.4c0.5-0.82,0.95-1.67,1.35-2.54l42.67-81.86v0L588,225.32h88.16h1.72V33.8v-2.66v-0.97h-0.01
	C677.87,30.12,677.88,30.07,677.88,30.02z M293.89,124.08L293.89,124.08c3.87-7.4,13.01-10.25,20.41-6.38l47.74,25
	c-4.77,2.24-8.88,6-11.52,11.04c-2.64,5.03-3.39,10.55-2.51,15.75l-47.74-25C292.87,140.61,290.02,131.47,293.89,124.08z
	 M371.53,200.27L371.53,200.27l-2.29,4.4c-1.52,2.61-3.67,5.76-6.01,7.55c-2.21,1.52-4.83,2.5-7.66,2.72v0h-0.01
	c-0.26,0.02-0.52,0.02-0.78,0.03V215h-0.32c-0.05,0-0.09,0.01-0.14,0.01c-0.04,0-0.08-0.01-0.11-0.01h-13.38c0,0,0,0,0,0h-34.97
	h-12.62h-8.78h-0.77h-0.78h-0.27h-0.19h-0.11c-0.02,0-0.05-0.01-0.07-0.01h-0.03v0c-2.52-0.13-4.52-2.2-4.52-4.75
	c0-0.68,0.15-1.32,0.4-1.9l-0.03-0.02l5.24-10.13c-0.01,0-0.02-0.01-0.03-0.01l3.46-6.63l0-0.01l17.59-33.74l53.27,27.9
	c0.58,0.31,1.18,0.58,1.77,0.83c0.55,0.35,1.11,0.68,1.7,0.99c5.04,2.64,10.57,3.39,15.79,2.51L371.53,200.27z M456.75,36.16
	c0,0.03-0.01,0.06-0.01,0.09c-0.01,0.09-0.03,0.17-0.05,0.25c-0.15,0.58-0.57,1.56-1.1,2.65l-2.99,5.73l0,0l-66.05,126.71
	c-1.07,1.85-2.88,4.53-5.27,6.33c-4.5,3.07-10.49,3.63-15.65,0.93c-7.46-3.91-10.33-13.12-6.43-20.57
	c3.62-6.91,11.79-9.88,18.9-7.17l1.82,0.95c0.08,0.04,0.16,0.06,0.23,0.09c0.07,0.04,0.13,0.1,0.21,0.14l0.46,0.24
	c2.43,1.27,5.42,0.33,6.69-2.09c1.27-2.43,0.33-5.42-2.09-6.69l-0.46-0.24c-0.08-0.04-0.16-0.06-0.23-0.09
	c-0.07-0.04-0.13-0.1-0.21-0.14l-3.68-1.93l-6.67-3.49l-46.68-24.45l41.88-80.34c0,0,0,0,0,0c0.75-1.65,2.39-2.8,4.32-2.81v0h0.02
	c0,0,0,0,0,0c0,0,0,0,0,0h0.83c0,0,0,0,0,0h76.47c1.04,0.08,2.12,0.26,2.9,0.62c1.7,0.88,2.88,2.63,2.88,4.69
	C456.79,35.77,456.77,35.97,456.75,36.16z M659.39,36.16c0,0.03-0.01,0.06-0.01,0.09c-0.01,0.09-0.03,0.17-0.05,0.25
	c-0.15,0.58-0.57,1.56-1.1,2.65l-2.99,5.73l0,0l-73.46,140.91c-0.01-0.02-0.03-0.04-0.04-0.05l-7.58,14.53l0,0l-2.29,4.4
	c-0.23,0.4-0.48,0.81-0.74,1.22l-44.65-85.5l45.52-87.32c0,0,0,0,0,0c0.75-1.65,2.39-2.8,4.32-2.81v0h0.02c0,0,0,0,0,0c0,0,0,0,0,0
	h0.83c0,0,0,0,0,0h76.47c1.04,0.08,2.12,0.26,2.9,0.62c1.7,0.88,2.88,2.63,2.88,4.69C659.43,35.77,659.41,35.97,659.39,36.16z"/>
<linearGradient id="SVGID_10_" gradientUnits="userSpaceOnUse" x1="323.82" y1="211.16" x2="323.82" y2="-10.6608">
	<stop  offset="0" style="stop-color:#2955ED"/>
	<stop  offset="0.7067" style="stop-color:#5D93FF"/>
</linearGradient>
<path class="st11" d="M319.58,193.79c-5.32,3.07-7.73,8.85-5.38,12.91c2.34,4.06,8.55,4.86,13.87,1.79
	c5.32-3.07,7.73-8.85,5.38-12.91C331.1,191.52,324.89,190.72,319.58,193.79z"/>
</svg>
