<svg xmlns="http://www.w3.org/2000/svg" width="332.47" height="110.288" viewBox="0 0 332.47 110.288">
  <g id="Group_12" data-name="Group 12" transform="translate(-75.77 -600)">
    <g id="Group_1" data-name="Group 1" transform="translate(-748.774 69.042)">
      <rect id="Rectangle_4" data-name="Rectangle 4" width="31.194" height="31.194" transform="translate(868.659 553.016) rotate(45)" fill="#3c92b1" opacity="0.6"/>
      <path id="Rectangle_11" data-name="Rectangle 11" d="M0,0H31.194V31.194H4a4,4,0,0,1-4-4Z" transform="translate(846.602 575.073) rotate(45)" fill="#3c92b1" opacity="0.8"/>
      <rect id="Rectangle_7" data-name="Rectangle 7" width="31.194" height="31.194" transform="translate(912.774 553.016) rotate(45)" fill="#3c92b1" opacity="0.6"/>
      <rect id="Rectangle_9" data-name="Rectangle 9" width="31.194" height="31.194" transform="translate(890.716 575.073) rotate(45)" fill="#3c92b1" opacity="0.8"/>
      <path id="Rectangle_13" data-name="Rectangle 13" d="M0,0H31.194V27.194a4,4,0,0,1-4,4H0Z" transform="translate(912.774 597.131) rotate(45)" fill="#3c92b1"/>
      <path id="Rectangle_14" data-name="Rectangle 14" d="M0,0H31.194V27.194a4,4,0,0,1-4,4H0Z" transform="translate(868.659 597.131) rotate(45)" fill="#3c92b1"/>
      <path id="Rectangle_15" data-name="Rectangle 15" d="M0,0H31.194V27.194a4,4,0,0,1-4,4H0Z" transform="translate(956.889 597.131) rotate(45)" fill="#3c92b1"/>
      <rect id="Rectangle_10" data-name="Rectangle 10" width="31.194" height="31.194" transform="translate(934.831 575.073) rotate(45)" fill="#3c92b1" opacity="0.8"/>
      <path id="Rectangle_12" data-name="Rectangle 12" d="M0,0H27.194a4,4,0,0,1,4,4V31.194H0Z" transform="translate(978.946 575.073) rotate(45)" fill="#3c92b1" opacity="0.8"/>
      <rect id="Rectangle_8" data-name="Rectangle 8" width="31.194" height="31.194" transform="translate(956.889 553.016) rotate(45)" fill="#3c92b1" opacity="0.6"/>
      <path id="Rectangle_5" data-name="Rectangle 5" d="M3,0H31.194V31.194H0V3A3,3,0,0,1,3,0Z" transform="translate(890.716 530.958) rotate(45)" fill="#3c92b1" opacity="0.4"/>
      <path id="Rectangle_6" data-name="Rectangle 6" d="M3,0H31.194V31.194H0V3A3,3,0,0,1,3,0Z" transform="translate(934.831 530.958) rotate(45)" fill="#3c92b1" opacity="0.4"/>
      <path id="Path_1" data-name="Path 1" d="M27.58.98a25.262,25.262,0,0,0,18.082-7.4,25.262,25.262,0,0,0,7.4-18.08,25.262,25.262,0,0,0-7.4-18.082,25.262,25.262,0,0,0-18.082-7.4A25.262,25.262,0,0,0,9.5-42.582,25.262,25.262,0,0,0,2.1-24.5,25.262,25.262,0,0,0,9.5-6.418,25.262,25.262,0,0,0,27.58.98Zm0-10.92C19.6-9.94,13.3-15.75,13.3-24.5s6.3-14.56,14.28-14.56S41.86-33.25,41.86-24.5,35.56-9.94,27.58-9.94ZM79.52-35.98c-4.62,0-8.12,1.68-10.01,4.27V-35H59.01V0h10.5V-19.11c0-4.97,2.66-7.21,6.51-7.21,3.36,0,6.09,2.03,6.09,6.37V0h10.5V-21.49C92.61-30.94,86.59-35.98,79.52-35.98ZM109.2-13.3h24.85a20.349,20.349,0,0,0,.42-4.2c0-10.57-7.56-18.48-17.78-18.48-11.06,0-18.62,8.05-18.62,18.48S105.49.98,117.46.98c6.65,0,11.83-2.45,15.26-7.21l-8.4-4.83A9.139,9.139,0,0,1,117.6-8.4C113.75-8.4,110.53-9.66,109.2-13.3Zm-.21-7.84c.98-3.57,3.64-5.53,7.63-5.53a7.206,7.206,0,0,1,7.42,5.53Z" transform="translate(1022.544 618.958)" fill="#b9c1ce"/>
    </g>
  </g>
</svg>
