<?xml version="1.0" encoding="UTF-8"?>
<svg version="1.1" xmlns="http://www.w3.org/2000/svg" >
<path d="M0 0 C9.343125 -0.103125 18.68625 -0.20625 28.3125 -0.3125 C32.73523315 -0.38078003 32.73523315 -0.38078003 37.24731445 -0.45043945 C39.57762513 -0.46503891 41.9079485 -0.47778085 44.23828125 -0.48828125 C46.06135803 -0.526651 46.06135803 -0.526651 47.92126465 -0.5657959 C49.07815796 -0.56640015 50.23505127 -0.56700439 51.42700195 -0.56762695 C52.432939 -0.57873001 53.43887604 -0.58983307 54.47529602 -0.60127258 C57 -0 57 -0 58.83659363 2.32844543 C60.18015246 5.4136879 60.23239941 7.66894177 60 11 C60.55461914 10.98428955 61.10923828 10.9685791 61.68066406 10.95239258 C64.20367152 10.88987138 66.72651576 10.85095658 69.25 10.8125 C70.12269531 10.78736328 70.99539062 10.76222656 71.89453125 10.73632812 C73.16103516 10.72182617 73.16103516 10.72182617 74.453125 10.70703125 C75.61569824 10.68346558 75.61569824 10.68346558 76.80175781 10.65942383 C79.72536852 11.11238217 80.90589877 11.90049149 83 14 C83.48101807 16.98027039 83.48101807 16.98027039 83.45410156 20.67456055 C83.4545837 21.35886296 83.45506584 22.04316538 83.45556259 22.74820423 C83.45257876 24.96157303 83.42213119 27.17359132 83.390625 29.38671875 C83.38474321 30.75377758 83.3806629 32.1208454 83.37841797 33.48791504 C83.35745382 38.55458081 83.30160872 43.6210537 83.25 48.6875 C83.1675 60.010625 83.085 71.33375 83 83 C55.61 83 28.22 83 0 83 C0 55.61 0 28.22 0 0 Z M8 8 C8 30.11 8 52.22 8 75 C10.64 75 13.28 75 16 75 C16 67.08 16 59.16 16 51 C19.733125 50.95875 23.46625 50.9175 27.3125 50.875 C28.48594971 50.85679199 29.65939941 50.83858398 30.8684082 50.81982422 C31.79484131 50.8148291 32.72127441 50.80983398 33.67578125 50.8046875 C34.62364502 50.79421387 35.57150879 50.78374023 36.5480957 50.77294922 C39 51 39 51 42 53 C42.34057617 55.24658203 42.34057617 55.24658203 42.29296875 58.0078125 C42.2784668 59.48701172 42.2784668 59.48701172 42.26367188 60.99609375 C42.23853516 62.02863281 42.21339844 63.06117187 42.1875 64.125 C42.16719727 65.68541016 42.16719727 65.68541016 42.14648438 67.27734375 C42.11105228 69.85207627 42.06165221 72.4257833 42 75 C44.64 75 47.28 75 50 75 C50 52.89 50 30.78 50 8 C36.14 8 22.28 8 8 8 Z M60 21 C60 38.82 60 56.64 60 75 C64.95 75 69.9 75 75 75 C75 57.18 75 39.36 75 21 C70.05 21 65.1 21 60 21 Z M25 59 C25 64.28 25 69.56 25 75 C27.64 75 30.28 75 33 75 C33 69.72 33 64.44 33 59 C30.36 59 27.72 59 25 59 Z "  transform="translate(2,2)"/>
<path d="M0 0 C1.43859375 -0.0309375 1.43859375 -0.0309375 2.90625 -0.0625 C3.83179687 -0.06765625 4.75734375 -0.0728125 5.7109375 -0.078125 C6.9801001 -0.09214355 6.9801001 -0.09214355 8.27490234 -0.10644531 C11.22328556 0.3407435 12.55213704 1.11167203 14.625 3.25 C15.12670898 5.47070312 15.12670898 5.47070312 15.12109375 8.03125 C15.12173828 8.95550781 15.12238281 9.87976563 15.12304688 10.83203125 C15.10306641 11.79496094 15.08308594 12.75789063 15.0625 13.75 C15.06958984 14.71292969 15.07667969 15.67585938 15.08398438 16.66796875 C15.02006922 23.71830176 15.02006922 23.71830176 13.29711914 26.03710938 C10.80097648 27.84771483 8.615099 27.44933993 5.625 27.25 C4.03087716 24.06175432 4.52325265 20.62103338 4.5625 17.125 C4.56701172 16.37089844 4.57152344 15.61679688 4.57617188 14.83984375 C4.58796501 12.97652873 4.60590058 11.11325445 4.625 9.25 C2.315 9.58 0.005 9.91 -2.375 10.25 C-2.42398437 11.23742188 -2.47296875 12.22484375 -2.5234375 13.2421875 C-2.59820312 14.52351563 -2.67296875 15.80484375 -2.75 17.125 C-2.81960937 18.40117188 -2.88921875 19.67734375 -2.9609375 20.9921875 C-3.375 24.25 -3.375 24.25 -5.375 26.25 C-8.5 26.375 -8.5 26.375 -11.375 26.25 C-12.65361615 23.69276771 -12.48836609 21.88262898 -12.47265625 19.0234375 C-12.46943359 17.9921875 -12.46621094 16.9609375 -12.46289062 15.8984375 C-12.45451172 14.81820312 -12.44613281 13.73796875 -12.4375 12.625 C-12.43298828 11.53703125 -12.42847656 10.4490625 -12.42382812 9.328125 C-12.41201776 6.63536211 -12.39554778 3.94270812 -12.375 1.25 C-8.62791686 -0.62354157 -4.12352647 0.02199214 0 0 Z " fill="#FC9402" transform="translate(30.375,51.75)"/>
</svg>
