<?xml version="1.0" encoding="utf-8"?>
<!-- Generator: Adobe Illustrator 25.4.1, SVG Export Plug-In . SVG Version: 6.00 Build 0)  -->
<svg version="1.1" id="Layer_1" xmlns="http://www.w3.org/2000/svg" xmlns:xlink="http://www.w3.org/1999/xlink" x="0px" y="0px"
	 viewBox="0 0 62.2 62.4" style="enable-background:new 0 0 62.2 62.4;" xml:space="preserve">
<path d="M14.1,0c3.8,0.8,5.2,3.4,7.3,6.5c0,1,0,2,0,3c0.9-0.1,1.7-0.1,2.6-0.2c3.8,0.2,6.1,1.3,9.4,3.2c0.8-0.7,1.6-1.3,2.4-2
	c2.6-2,2.6-2,4.6-2c0.1-0.6,0.2-1.2,0.2-1.8c1-3,2.2-4.3,4.8-6.2c2.8-0.4,2.8-0.4,6,0c2.3,1.7,4,3.2,5.9,5.2
	c0.8,0.7,0.8,0.7,1.5,1.5c1.4,1.5,1.4,1.5,3.5,4.3c-0.1,5-2.6,7.6-6,11c-1,0-2,0-3,0c0.1,0.9,0.2,1.8,0.3,2.7
	c-0.4,4.2-1.6,5.2-4.7,8c-4.3,4.5-5.6,7.3-5.7,13.4c0,1.4,0,1.4,0.1,2.9c0,2.2,0,4.5-0.1,6.7c0,1.8,0,3.5,0.1,5.3
	c-3.6,0-7.3,0-10.9,0.1c-1,0-2.1,0-3.2,0c-1.5,0-1.5,0-3,0c-1.4,0-1.4,0-2.8,0c-2.1-0.1-2.1-0.1-3.1-1.1c-0.1-1.5-0.1-2.9-0.1-4.4
	c0-1.2,0-1.2,0-2.4c0.1-2.2,0.1-2.2,1.1-5.2c-1-1.7-2-3.4-3-5c-1.1-2.1-1.2-3.6-1.3-6c-0.4-5.3-3.9-7.7-7.7-11c-1.7-1.7-3.3-3.3-5-5
	c-0.8-0.6-1.5-1.3-2.3-1.9c-1.7-2.1-1.7-2.1-2.1-4.8c0.6-4.3,2.6-6.3,5.6-9.1c0.5-0.5,1-1,1.5-1.5C9.4,1.9,11,0.6,14.1,0z M47.4,5.5
	C47,9.3,47,9.3,48.7,11.2c0.8,0.8,0.8,0.8,1.7,1.5c0.6,0.5,1.1,1,1.7,1.6c0.4,0.4,0.9,0.8,1.3,1.2c1.3-0.7,2.6-1.3,4-2
	c-1.3-1.3-2.6-2.7-3.9-4c-0.7-0.7-1.4-1.5-2.2-2.2C49.6,5.3,49.6,5.3,47.4,5.5z M10.7,8c-0.9,1-0.9,1-1.9,2c-0.6,0.6-1.3,1.3-1.9,2
	c-0.5,0.5-1,1-1.5,1.5c0.3,1,0.7,2,1,3c2.9-1.3,5-2.6,7-5c0-0.7,0-1.3,0-2c0.7,0,1.3,0,2,0c-0.3-1-0.7-2-1-3
	C12.3,6.3,12.3,6.3,10.7,8z M14.3,15.6c-2.1,2.7-2.1,2.7-2,5.4c1.4,3.1,3.3,4.5,6.1,6.4c2.5-1.9,4.9-3.7,7-6c0.5-2.7,0.5-2.7,0-5
	c0.3-0.7,0.7-1.3,1-2C20.1,13.1,20.1,13.1,14.3,15.6z M43.4,12.5c-4.6,2-7.1,3.9-10,8c0.7,0,1.3,0,2,0c0,0.7,0,1.3,0,2
	c2,1.7,4,3.4,6,5c0.8-0.4,1.6-0.7,2.4-1.1c0.9-0.3,1.7-0.6,2.6-0.9c0.7,0.3,1.3,0.7,2,1c0.7-3,1.2-5.9,1-9
	C47.7,15.1,46,14.1,43.4,12.5z M27.4,36.5c-2.1,0.9-2.1,0.9-4,2c0.4,4.8,1.3,7.8,5,11c3,0.6,4.9,0.4,8,0c2.1-3.1,2.2-3.7,2.1-7.2
	c-0.1-1.9-0.1-1.9-0.1-3.8c-1.7,0.7-3.3,1.3-5,2c0.3,2,0.7,4,1,6c-1.3,0.3-2.6,0.7-4,1c-0.7-1.3-1.3-2.6-2-4c-0.7,0-1.3,0-2,0
	c0.6-2.9,0.9-3.9,3-6C28.8,37.2,28.1,36.8,27.4,36.5z M26.4,54.5c0,1,0,2,0,3c4,0,7.9,0,12,0c0-1,0-2,0-3
	C34.5,54.5,30.5,54.5,26.4,54.5z"/>
</svg>
