<?xml version="1.0" encoding="UTF-8"?>
<svg version="1.1" xmlns="http://www.w3.org/2000/svg" >
<path d="M0 0 C1.10794922 -0.04350586 1.10794922 -0.04350586 2.23828125 -0.08789062 C7.62262015 -0.14961585 11.60283306 0.74344733 15.75 4.3125 C20.13389957 9.96844912 20.45084584 15.11529519 20.625 22.125 C20.67140625 23.07826172 20.7178125 24.03152344 20.765625 25.01367188 C20.95639062 30.19002352 20.95639062 30.19002352 20.75 32.3125 C20.09 32.9725 19.43 33.6325 18.75 34.3125 C17.76 34.3125 16.77 34.3125 15.75 34.3125 C15.9046875 35.5190625 15.9046875 35.5190625 16.0625 36.75 C15.6275623 41.70828974 13.34354581 45.14430138 10.75 49.3125 C11.6575 49.35375 12.565 49.395 13.5 49.4375 C19.50119815 50.33338439 27.21798465 52.92090749 30.94091797 57.90771484 C34.09768813 63.55277971 34.79215346 69.46686394 35.5 75.8125 C35.62503906 76.82570313 35.75007813 77.83890625 35.87890625 78.8828125 C36.18247958 81.35810275 36.47249922 83.83417503 36.75 86.3125 C35.43 86.3125 34.11 86.3125 32.75 86.3125 C32.63930176 85.63670898 32.52860352 84.96091797 32.41455078 84.26464844 C31.90804847 81.19611938 31.39163587 78.12933846 30.875 75.0625 C30.61396484 73.46728516 30.61396484 73.46728516 30.34765625 71.83984375 C30.08662109 70.30263672 30.08662109 70.30263672 29.8203125 68.734375 C29.66320801 67.79174805 29.50610352 66.84912109 29.34423828 65.87792969 C28.76764188 63.38866305 28.08420659 61.48589607 26.75 59.3125 C25.76 58.8175 25.76 58.8175 24.75 58.3125 C24.42 60.9525 24.09 63.5925 23.75 66.3125 C24.74 66.6425 25.73 66.9725 26.75 67.3125 C29.73514842 73.28279685 27.75 80.6375052 27.75 87.3125 C9.6 87.3125 -8.55 87.3125 -27.25 87.3125 C-27.25 81.3725 -27.25 75.4325 -27.25 69.3125 C-26.26 68.3225 -25.27 67.3325 -24.25 66.3125 C-23.67676193 64.04088745 -23.67676193 64.04088745 -23.5625 61.625 C-23.49675781 60.81675781 -23.43101563 60.00851563 -23.36328125 59.17578125 C-23.32589844 58.56089844 -23.28851563 57.94601563 -23.25 57.3125 C-29.30212436 62.75941192 -29.80609052 68.90812797 -30.875 76.625 C-31.0090625 77.55634766 -31.143125 78.48769531 -31.28125 79.44726562 C-31.60973711 81.73494371 -31.93246817 84.02328004 -32.25 86.3125 C-33.57 86.3125 -34.89 86.3125 -36.25 86.3125 C-33.96291596 61.61199239 -33.96291596 61.61199239 -28.9375 55.5 C-23.84908531 51.85612248 -17.14308852 50.20959014 -11.25 48.3125 C-12.45381448 45.81888429 -13.70428722 43.63106917 -15.25 41.3125 C-15.37375 40.136875 -15.4975 38.96125 -15.625 37.75 C-15.83125 36.615625 -16.0375 35.48125 -16.25 34.3125 C-18.22425826 33.06451109 -18.22425826 33.06451109 -20.25 32.3125 C-20.19769177 28.95710726 -20.10252053 25.60420443 -20 22.25 C-19.98582031 21.30705078 -19.97164062 20.36410156 -19.95703125 19.39257812 C-19.74131543 13.20153406 -18.85308504 9.38926709 -15.25 4.3125 C-10.64573634 0.12680576 -5.97775273 0.07663786 0 0 Z M-13.25 7.3125 C-16.56040331 12.01113695 -16.53638547 15.77571424 -16.25 21.3125 C-15.57195313 21.168125 -14.89390625 21.02375 -14.1953125 20.875 C-3.32995323 18.70794774 5.8921879 19.22302413 16.75 21.3125 C17.24242834 15.40335997 16.2323918 11.19004562 12.75 6.3125 C8.11053362 2.50575836 2.65223843 2.81363856 -3.11328125 2.96484375 C-7.62773676 3.46520059 -9.74190423 4.41450785 -13.25 7.3125 Z M-15.25 25.3125 C-14.92 25.9725 -14.59 26.6325 -14.25 27.3125 C-13.1775 27.1475 -12.105 26.9825 -11 26.8125 C-2.38716754 25.74542341 6.17237589 26.16881679 14.75 27.3125 C14.75 26.3225 14.75 25.3325 14.75 24.3125 C9.68079994 22.65576925 5.10096957 21.97437275 -0.25 22 C-0.92289063 21.98388672 -1.59578125 21.96777344 -2.2890625 21.95117188 C-7.38295027 21.94625499 -10.77623353 23.10474285 -15.25 25.3125 Z M-12.25 30.3125 C-12.66776675 36.37011794 -12.37264203 39.50275097 -8.25 44.3125 C-4.04680448 46.88014245 -0.05111245 46.99480714 4.75 46.3125 C7.90689734 44.70535226 9.94415756 43.33811766 12.125 40.5625 C13.08315962 37.11312538 12.86908512 33.88505374 12.75 30.3125 C3.83533524 28.04845816 -3.33533524 28.04845816 -12.25 30.3125 Z M-6.25 49.3125 C-3.96489655 53.12100575 -2.37404415 55.40390717 0.75 58.3125 C3.72 53.8575 3.72 53.8575 6.75 49.3125 C2.46 49.3125 -1.83 49.3125 -6.25 49.3125 Z M-13.25 53.3125 C-13.25 57.6025 -13.25 61.8925 -13.25 66.3125 C-4.34 66.3125 4.57 66.3125 13.75 66.3125 C13.75 62.0225 13.75 57.7325 13.75 53.3125 C12.1 52.9825 10.45 52.6525 8.75 52.3125 C6.11 55.6125 3.47 58.9125 0.75 62.3125 C-1.82750751 59.80658992 -4.20491004 57.37217789 -6.375 54.5 C-6.99375 53.778125 -7.6125 53.05625 -8.25 52.3125 C-11.1754644 52.0888932 -11.1754644 52.0888932 -13.25 53.3125 Z M-20.25 55.3125 C-20.25 59.9325 -20.25 64.5525 -20.25 69.3125 C-22.23 70.3025 -22.23 70.3025 -24.25 71.3125 C-24.25 75.6025 -24.25 79.8925 -24.25 84.3125 C-8.08 84.3125 8.09 84.3125 24.75 84.3125 C25.37051575 76.54798211 25.37051575 76.54798211 23.75 69.3125 C22.76 69.3125 21.77 69.3125 20.75 69.3125 C20.75 64.6925 20.75 60.0725 20.75 55.3125 C19.76 55.3125 18.77 55.3125 17.75 55.3125 C17.42 59.6025 17.09 63.8925 16.75 68.3125 C5.53 68.6425 -5.69 68.9725 -17.25 69.3125 C-17.25 64.3625 -17.25 59.4125 -17.25 54.3125 C-18.4736068 54.2379644 -18.4736068 54.2379644 -20.25 55.3125 Z "  transform="translate(43.25,-0.3125)"/>
<path d="M0 0 C2.31 0 4.62 0 7 0 C7 1.32 7 2.64 7 4 C4.69 4 2.38 4 0 4 C0 2.68 0 1.36 0 0 Z "  transform="translate(59,70)"/>
<path d="M0 0 C2.31 0 4.62 0 7 0 C7 1.32 7 2.64 7 4 C4.69 4 2.38 4 0 4 C0 2.68 0 1.36 0 0 Z "  transform="translate(21,70)"/>
</svg>
