<svg xmlns="http://www.w3.org/2000/svg" viewBox="0 0 64 64"><g id="HOUSE-20" data-name="HOUSE"><path d="M63,51H60.12V40a1,1,0,0,0-1-1H52.36V16a1,1,0,0,0-1-1H44.61V4a1,1,0,0,0-1-1H20.36a1,1,0,0,0-1,1V15H12.61a1,1,0,0,0-1,1V39H4.85a1,1,0,0,0-1,1V51H1a1,1,0,0,0,0,2H63A1,1,0,0,0,63,51ZM50.42,17V39h-1V18H45.58V39h-1V17Zm-1.94,9v5H46.55V26Zm-1.93-2V19h1.93v5Zm1.93,9v5H46.55V33ZM5.82,41h5.82V51H5.82Zm7.76-24h5.81V51H13.58ZM21.33,5h3.88V32a1,1,0,1,0,1.94,0V5H42.67V39H29.09a1,1,0,0,0-1,1V51H21.33Zm8.73,36H58.18V51H30.06Z"/><path d="M14.55,18V39h3.87V18Zm2.9,20H15.52V33h1.93Zm0-7H15.52V26h1.93Zm0-7H15.52V19h1.93Z"/></g></svg>