<svg  viewBox="0 0 35 35" fill="none" xmlns="http://www.w3.org/2000/svg">
<path d="M9.90833 0H24.2583C29.725 0 34.1667 4.44167 34.1667 9.90833V24.2583C34.1667 26.8862 33.1228 29.4064 31.2646 31.2646C29.4064 33.1228 26.8862 34.1667 24.2583 34.1667H9.90833C4.44167 34.1667 0 29.725 0 24.2583V9.90833C0 7.28048 1.04391 4.76026 2.90208 2.90208C4.76026 1.04391 7.28048 0 9.90833 0ZM9.56667 3.41667C7.93559 3.41667 6.37131 4.06461 5.21796 5.21796C4.06461 6.37131 3.41667 7.93559 3.41667 9.56667V24.6C3.41667 27.9996 6.16708 30.75 9.56667 30.75H24.6C26.2311 30.75 27.7954 30.1021 28.9487 28.9487C30.1021 27.7954 30.75 26.2311 30.75 24.6V9.56667C30.75 6.16708 27.9996 3.41667 24.6 3.41667H9.56667ZM26.0521 5.97917C26.6184 5.97917 27.1616 6.20415 27.5621 6.60462C27.9625 7.00508 28.1875 7.54824 28.1875 8.11458C28.1875 8.68093 27.9625 9.22408 27.5621 9.62455C27.1616 10.025 26.6184 10.25 26.0521 10.25C25.4857 10.25 24.9426 10.025 24.5421 9.62455C24.1416 9.22408 23.9167 8.68093 23.9167 8.11458C23.9167 7.54824 24.1416 7.00508 24.5421 6.60462C24.9426 6.20415 25.4857 5.97917 26.0521 5.97917ZM17.0833 8.54167C19.3487 8.54167 21.5213 9.44159 23.1232 11.0435C24.7251 12.6453 25.625 14.8179 25.625 17.0833C25.625 19.3487 24.7251 21.5213 23.1232 23.1232C21.5213 24.7251 19.3487 25.625 17.0833 25.625C14.8179 25.625 12.6453 24.7251 11.0435 23.1232C9.44159 21.5213 8.54167 19.3487 8.54167 17.0833C8.54167 14.8179 9.44159 12.6453 11.0435 11.0435C12.6453 9.44159 14.8179 8.54167 17.0833 8.54167ZM17.0833 11.9583C15.7241 11.9583 14.4205 12.4983 13.4594 13.4594C12.4983 14.4205 11.9583 15.7241 11.9583 17.0833C11.9583 18.4426 12.4983 19.7461 13.4594 20.7073C14.4205 21.6684 15.7241 22.2083 17.0833 22.2083C18.4426 22.2083 19.7461 21.6684 20.7073 20.7073C21.6684 19.7461 22.2083 18.4426 22.2083 17.0833C22.2083 15.7241 21.6684 14.4205 20.7073 13.4594C19.7461 12.4983 18.4426 11.9583 17.0833 11.9583Z" />
</svg>
