<svg  viewBox="0 0 35 35" xmlns="http://www.w3.org/2000/svg">
<path d="M31.4583 0.684814H3.37441C1.88948 0.684814 0.684814 1.88948 0.684814 3.37441V31.4583C0.684814 32.9432 1.88948 34.1479 3.37441 34.1479H31.4583C32.9432 34.1479 34.1479 32.9432 34.1479 31.4583V3.37441C34.1479 1.88948 32.9432 0.684814 31.4583 0.684814ZM31.4583 31.4708C12.7273 31.4666 3.36186 31.4624 3.36186 31.4583C3.36604 12.7273 3.37022 3.36186 3.37441 3.36186C22.1053 3.36604 31.4708 3.37022 31.4708 3.37441C31.4666 22.1053 31.4624 31.4708 31.4583 31.4708ZM5.64571 13.2293H10.6108V29.1995H5.64571V13.2293ZM8.13034 11.0458C9.71565 11.0458 11.0082 9.75748 11.0082 8.16799C11.0082 7.79007 10.9337 7.41585 10.7891 7.06669C10.6445 6.71754 10.4325 6.40029 10.1653 6.13306C9.89804 5.86583 9.58079 5.65385 9.23164 5.50923C8.88248 5.3646 8.50826 5.29017 8.13034 5.29017C7.75242 5.29017 7.3782 5.3646 7.02905 5.50923C6.67989 5.65385 6.36264 5.86583 6.09541 6.13306C5.82818 6.40029 5.6162 6.71754 5.47158 7.06669C5.32696 7.41585 5.25252 7.79007 5.25252 8.16799C5.24834 9.75748 6.53666 11.0458 8.13034 11.0458ZM18.6837 21.298C18.6837 19.215 19.0811 17.1988 21.662 17.1988C24.2051 17.1988 24.2428 19.5789 24.2428 21.4319V29.1995H29.2037V20.4406C29.2037 16.1406 28.2751 12.8319 23.2515 12.8319C20.8379 12.8319 19.2192 14.1579 18.5541 15.4127H18.4872V13.2293H13.7229V29.1995H18.6837V21.298Z" />
</svg>
