<?xml version="1.0" encoding="utf-8"?>
<!-- Generator: Adobe Illustrator 25.4.1, SVG Export Plug-In . SVG Version: 6.00 Build 0)  -->
<svg version="1.1" id="Layer_1" xmlns="http://www.w3.org/2000/svg" xmlns:xlink="http://www.w3.org/1999/xlink" x="0px" y="0px"
	 viewBox="0 0 63.3 57" style="enable-background:new 0 0 63.3 57;" xml:space="preserve">
<path d="M25.3,0c4.3,0,8.6,0,13,0c0,2.3,0,4.6,0,7c2.3,0,4.6,0,7,0c0,2.6,0,5.3,0,8c2.3,0,4.6,0,7,0c0,2.6,0,5.3,0,8
	c0.8,0,1.6,0,2.4,0c1,0,2,0,3.1,0c1,0,2,0,3.1,0c2.5,0.1,2.5,0.1,3.5,1.1c0,1.7,0,3.3,0,5c-1.7,0.3-3.3,0.7-5,1c0,1.3,0,2.6,0,4
	c-1-0.3-2-0.7-3-1c0-1,0-2,0-3c-16.2,0-32.3,0-49,0c-0.3,1.3-0.7,2.6-1,4c-0.7,0-1.3,0-2,0c0-1.3,0-2.6,0-4c-1.3-0.3-2.6-0.7-4-1
	c0-1.7,0-3.3,0-5c1-1,1-1,3.5-1.1c1,0,2,0,3.1,0c1,0,2,0,3.1,0c1.2,0,1.2,0,2.4,0c0-2.6,0-5.3,0-8c2.3,0,4.6,0,7,0c0-2.6,0-5.3,0-8
	c2,0,4,0,6,0C25.3,4.7,25.3,2.4,25.3,0z M29.3,3c0,1.3,0,2.6,0,4c2,0,4,0,6,0c0-1.3,0-2.6,0-4C33.3,3,31.3,3,29.3,3z M22.3,11
	c0,1.3,0,2.6,0,4c2,0,4,0,6,0c0-1.3,0-2.6,0-4C26.3,11,24.3,11,22.3,11z M35.3,11c0,1.3,0,2.6,0,4c2.3,0,4.6,0,7,0c0-1.3,0-2.6,0-4
	C40,11,37.7,11,35.3,11z M15.3,18c0,1.6,0,3.3,0,5c2.3,0,4.6,0,7,0c0-1.6,0-3.3,0-5C20,18,17.7,18,15.3,18z M29.3,18
	c0,1.6,0,3.3,0,5c2,0,4,0,6,0c0-1.6,0-3.3,0-5C33.3,18,31.3,18,29.3,18z M38.3,18c0,1.6,0,3.3,0,5c0.3,0,0.7,0,1,0c0-1.6,0-3.3,0-5
	C38.9,18,38.6,18,38.3,18z M42.3,18c0,1.6,0,3.3,0,5c2.3,0,4.6,0,7,0c0-1.6,0-3.3,0-5C47,18,44.7,18,42.3,18z M3.3,26
	c0,0.3,0,0.7,0,1c19.1,0,38.3,0,58,0c0-0.3,0-0.7,0-1C42.1,26,23,26,3.3,26z"/>
<path d="M21.3,32c2.6,0,5.3,0,8,0c0.3,1.7,0.7,3.3,1,5c1,0.3,2,0.7,3,1c0,1.3,0,2.6,0,4c1.3,0,2.6,0,4,0c0.5,6.4,0.5,6.4,1,13
	c-1.7,0-3.3,0-5,0c0,0.7,0,1.3,0,2c-2.7,1.4-5,1.1-8,1c-0.3-0.7-0.7-1.3-1-2c-2.6-0.5-2.6-0.5-5.6-0.6c-1-0.1-2-0.1-3.1-0.2
	c-1.2-0.1-1.2-0.1-2.4-0.1c-0.3,1-0.7,2-1,3c-2,0-4,0-6,0c-0.3-1-0.7-2-1-3c-1.6,0-3.3,0-5,0c-0.3-3-0.4-6,0-9c2.3-1.8,2.3-1.8,5-3
	c0.4-0.9,0.9-1.8,1.3-2.7c1.7-2.3,1.7-2.3,3.6-2.7c2.2,0,2.2,0,6.1,0.4c0.3,0.3,0.7,0.7,1,1c0.3-0.7,0.7-1.3,1-2c1,0,2,0,3,0
	C21.3,35.3,21.3,33.7,21.3,32z M24.3,35c0,0.7,0,1.3,0,2c1,0,2,0,3,0c0-0.7,0-1.3,0-2C26.3,35,25.3,35,24.3,35z M21.3,40
	c0,0.7,0,1.3,0,2c1,0,2,0,3,0c0-0.7,0-1.3,0-2C23.3,40,22.3,40,21.3,40z M27.3,40c0,0.7,0,1.3,0,2c0.7,0,1.3,0,2,0c0-0.7,0-1.3,0-2
	C28.6,40,28,40,27.3,40z M10.3,41c-0.3,1-0.7,2-1,3c1.6,0,3.3,0,5,0c0-1,0-2,0-3C13,41,11.6,41,10.3,41z M17.3,45c0,1.3,0,2.6,0,4
	c2.4,0.2,2.4,0.2,5,0c0.7-0.7,1.3-1.3,2-2c2.4-0.2,2.4-0.2,5.1-0.1c1.4,0,1.4,0,2.8,0.1c0.7,0,1.4,0,2.1,0.1c0-0.7,0-1.3,0-2
	C28.7,45,23.1,45,17.3,45z M3.3,48c0.7,1.3,1.3,2.6,2,4c0.3-0.3,0.7-0.7,1-1c5.5-0.2,5.5-0.2,8,1c0-1.7,0-3.3,0-5
	c-1.5,0-2.9,0-4.4-0.1c-1.2,0-1.2,0-2.5,0C5.2,46.9,5.2,46.9,3.3,48z M26.3,49c0,0.3,0,0.7,0,1c1.7,0,3.3,0,5,0c0-0.3,0-0.7,0-1
	C29.6,49,28,49,26.3,49z M8.3,53c0,0.7,0,1.3,0,2c0.7,0,1.3,0,2,0c0-0.7,0-1.3,0-2C9.6,53,9,53,8.3,53z M27.3,53c0,0.7,0,1.3,0,2
	c1,0,2,0,3,0c0-0.7,0-1.3,0-2C29.3,53,28.3,53,27.3,53z"/>
<path d="M42.3,31c1,0,2,0,3,0c0.3,4,0.7,7.9,1,12c1.3-2,1.3-2,2.6-4c2.9-3.9,2.9-3.9,6.7-4.6c2.7,0.6,2.7,0.6,3.7,1.6
	c0,2.3,0,4.7,0,7c0.6,0.1,1.3,0.2,1.9,0.4c0.7,0.2,1.4,0.4,2.1,0.6c1.7,3.4,1.5,7.2,1,11c-1.6,2.1-1.6,2.1-4,3c-3.2,0.2-3.2,0.2-6,0
	c0-0.7,0-1.3,0-2c-1,0.7-2,1.3-3,2c-2.7,0-2.7,0-5.7-0.4c-1.5-0.2-1.5-0.2-3-0.3c-0.8-0.1-1.5-0.2-2.3-0.3c0-1.3,0-2.6,0-4
	c0.7,0,1.3,0,2,0c0-4,0-7.9,0-12c-2.6,0-5.3,0-8,0c0-1,0-2,0-3c0.7,0,1.3,0,2,0c0-1.7,0-3.3,0-5c2,0,4,0,6,0
	C42.3,32.3,42.3,31.7,42.3,31z M39.3,36c0,0.7,0,1.3,0,2c1,0,2,0,3,0c0-0.7,0-1.3,0-2C41.3,36,40.3,36,39.3,36z M53.3,38
	c-3.2,4-3.2,4-4,9c3.2-0.6,5.1-1.3,7-4c0.3-2.6,0.3-2.6,0-5C55.3,38,54.3,38,53.3,38z M50.3,50c1,0.5,1,0.5,2,1c0,0.7,0,1.3,0,2
	c0.6-0.4,1.1-0.7,1.7-1.1c2.9-1.2,4.4-0.7,7.3,0.1c0-1.7,0-3.3,0-5C56.8,46.6,54.1,47.8,50.3,50z M45.3,50c0.3,0.7,0.7,1.3,1,2
	c0.3-0.7,0.7-1.3,1-2C46.6,50,46,50,45.3,50z"/>
</svg>
