<svg viewBox="0 0 50 49" xmlns="http://www.w3.org/2000/svg">
<path d="M26.4531 0.859375H45.1562C45.6977 0.859375 46.1406 1.30234 46.1406 1.84375V20.5469C46.1406 21.0883 45.6977 21.5312 45.1562 21.5312H26.4531C25.9117 21.5312 25.4688 21.0883 25.4688 20.5469V1.84375C25.4688 1.30234 25.9117 0.859375 26.4531 0.859375ZM29.6523 17.3477H41.957V5.04297H29.6523V17.3477ZM1.84375 0.859375H20.5469C21.0883 0.859375 21.5312 1.30234 21.5312 1.84375V20.5469C21.5312 21.0883 21.0883 21.5312 20.5469 21.5312H1.84375C1.30235 21.5312 0.859375 21.0883 0.859375 20.5469V1.84375C0.859375 1.30234 1.30235 0.859375 1.84375 0.859375ZM5.04297 17.3477H17.3477V5.04297H5.04297V17.3477ZM1.84375 25.4688H20.5469C21.0883 25.4688 21.5312 25.9117 21.5312 26.4531V45.1562C21.5312 45.6977 21.0883 46.1406 20.5469 46.1406H1.84375C1.30235 46.1406 0.859375 45.6977 0.859375 45.1562V26.4531C0.859375 25.9117 1.30235 25.4688 1.84375 25.4688ZM5.04297 41.957H17.3477V29.6523H5.04297V41.957ZM28.9141 35.8047H36.7891V27.9297C36.7891 27.659 37.0105 27.4375 37.2812 27.4375H40.2344C40.5051 27.4375 40.7266 27.659 40.7266 27.9297V35.8047H48.6016C48.8723 35.8047 49.0938 36.0262 49.0938 36.2969V39.25C49.0938 39.5207 48.8723 39.7422 48.6016 39.7422H40.7266V47.6172C40.7266 47.8879 40.5051 48.1094 40.2344 48.1094H37.2812C37.0105 48.1094 36.7891 47.8879 36.7891 47.6172V39.7422H28.9141C28.6434 39.7422 28.4219 39.5207 28.4219 39.25V36.2969C28.4219 36.0262 28.6434 35.8047 28.9141 35.8047Z" />
</svg>
