<svg  viewBox="0 0 17 21"  xmlns="http://www.w3.org/2000/svg">
<path d="M8.99219 0.266418C4.78366 0.266418 0.625 3.07189 0.625 7.61248C0.625 10.5 2.24922 12.1406 3.23359 12.1406C3.63981 12.1406 3.87344 11.0086 3.87344 10.689C3.87344 10.3077 2.90153 9.49526 2.90153 7.90779C2.90153 4.61014 5.41169 2.27192 8.66012 2.27192C11.4531 2.27192 13.5203 3.85939 13.5203 6.77576C13.5203 8.95386 12.6468 13.039 9.81644 13.039C8.79531 13.039 7.92119 12.3007 7.92119 11.2429C7.92119 9.69214 9.004 8.19129 9.004 6.59136C9.004 3.87645 5.15247 4.36864 5.15247 7.64989C5.15247 8.33895 5.23844 9.10151 5.54622 9.72954C4.97987 12.1662 3.82356 15.7959 3.82356 18.3061C3.82356 19.0811 3.93447 19.8443 4.00797 20.6194C4.14709 20.7755 4.07753 20.7591 4.29081 20.681C6.358 17.8506 6.2845 17.2974 7.21966 13.5935C7.72431 14.5536 9.02828 15.0701 10.0619 15.0701C14.4174 15.0701 16.3743 10.8248 16.3743 6.99823C16.3743 2.92554 12.8549 0.267731 8.99153 0.267731L8.99219 0.266418Z" />
</svg>
