<svg xmlns="http://www.w3.org/2000/svg" viewBox="0 0 64 64"><g id="Layer_22" data-name="Layer 22"><path d="M60.92,40.79,55.25,27a1,1,0,0,0-.92-.62H43.82a1,1,0,0,0-1,1V45.6H40.43V19.17a1,1,0,0,0-1-1h-5V11.72a1,1,0,0,0-.5-.87L22.21,4.07a1,1,0,0,0-1,0L9.46,10.85a1,1,0,0,0-.5.87v6.45H4a1,1,0,0,0-1,1V51a1,1,0,0,0,1,1H6.68a5.44,5.44,0,0,0,10.7,0h2.39a5.44,5.44,0,0,0,10.7,0H46.65a5.44,5.44,0,0,0,10.7,0H60a1,1,0,0,0,1-1V41.17A1,1,0,0,0,60.92,40.79Zm-2.41-.62h-7V28.38h2.2ZM42.82,50H30.47a5.48,5.48,0,0,0-1.08-2.36H42.82Zm-23,0H17.38a5.47,5.47,0,0,0-1.07-2.36h4.53A5.47,5.47,0,0,0,19.77,50ZM11,13.46l9.75,5.62V30.34L11,24.71Zm5.16-4.14,9.05,6-3.46,2L12,11.72Zm6.59,9.76,3.36-1.94V20a1,1,0,0,0,2,0V16l4.39-2.53V24.71l-9.75,5.63Zm-1-13,9.76,5.63-4.36,2.52-9.06-6ZM5,20.17H9v5.12a1,1,0,0,0,.5.87l11.75,6.78a1,1,0,0,0,.5.13,1,1,0,0,0,.5-.13L34,26.16a1,1,0,0,0,.5-.87V20.17h4V45.51H5ZM5,47.6H7.76A5.48,5.48,0,0,0,6.68,50H5Zm7,6.8a3.44,3.44,0,0,1-.77-6.8H12.8A3.44,3.44,0,0,1,12,54.4Zm13.08,0a3.44,3.44,0,0,1-.77-6.8h1.54a3.44,3.44,0,0,1-.77,6.8ZM52,54.4A3.45,3.45,0,1,1,55.45,51,3.45,3.45,0,0,1,52,54.4ZM57.35,50a5.44,5.44,0,0,0-10.7,0H44.82V28.38h4.64V41.17a1,1,0,0,0,1,1H59V50Z"></path></g></svg>