<?xml version="1.0" encoding="utf-8"?>
<!-- Generator: Adobe Illustrator 25.4.1, SVG Export Plug-In . SVG Version: 6.00 Build 0)  -->
<svg version="1.1" id="Layer_1" xmlns="http://www.w3.org/2000/svg" xmlns:xlink="http://www.w3.org/1999/xlink" x="0px" y="0px"
	 viewBox="0 0 64 64.5" style="enable-background:new 0 0 64 64.5;" xml:space="preserve">
<path d="M23.9,0.1c1.6,0,1.6,0,3.2-0.1c3.6,0.6,4.7,1.7,6.9,4.5c0.5,0.7,1,1.4,1.5,2.2c1.8,2.1,2.8,2.4,5.5,2.8c0.3-1.7,0.7-3.3,1-5
	c2.5,0.5,2.5,0.5,5,1c-0.3,3.4-0.7,5.6-2.7,8.4C42,15.5,42,15.5,39.1,16c-4.1-0.7-5.4-2.4-8.1-5.6c-0.7-1-1.3-2-2-3
	c-1,1.5-1,1.5-2,3c-1.3-0.3-2.6-0.7-4-1c1.2,2.7,1.2,2.7,3,5c0.4,2.3,0.7,4.7,1.1,7.1c0.2,1.3,0.4,2.6,0.5,3.9
	c0.2,1.5,0.2,1.5,0.4,3c0.7-0.6,1.5-1.2,2.2-1.8c1.5-1.1,1.5-1.1,3-2.2c1.4-1.1,1.4-1.1,2.9-2.2c2.9-1.8,2.9-1.8,7.9-1.8
	c0,3.3,0,6.6,0,10c1-0.7,1.9-1.5,2.9-2.2c1.3-0.9,2.5-1.9,3.8-2.8c0.9-0.7,0.9-0.7,1.9-1.5c0.6-0.5,1.2-0.9,1.9-1.4
	c0.6-0.4,1.1-0.8,1.7-1.3c1.9-0.8,1.9-0.8,6.9,0.2c0.3,14.2,0.7,28.4,1,43c-21.1,0-42.2,0-64,0c0-9,0-9,1-10
	c0.4-2.8,0.8-5.7,1.1-8.5c0.2-1.8,0.4-3.5,0.6-5.3c0.3-2.8,0.7-5.6,1-8.4c0.3-2.7,0.6-5.4,1-8c0.1-0.8,0.2-1.7,0.3-2.5
	c0.5-3.7,0.8-6.1,3-9.3c2.6-0.2,2.6-0.2,5,0c-0.3-1-0.7-2-1-3C14.5,2.5,16.5,0.2,23.9,0.1z M11,28.5c-1.7,8.7-3.3,17.2-4,26
	c5.9,0,11.9,0,18,0c-1-8.6-2-17.2-3-26C18.4,28.5,14.7,28.5,11,28.5z M50.9,31.9c-1.4,1-1.4,1-2.8,1.9c-0.7,0.5-1.4,1.1-2.2,1.6
	c0,0.3,0,0.7,0,1c2.6,0,5.3,0,8,0c0,4.3,0,8.6,0,13c-3.3-0.3-6.6-0.7-10-1c0,2,0,4,0,6c4.3,0,8.6,0,13,0c0-8.6,0-17.2,0-26
	C54.8,28.5,52.6,30.7,50.9,31.9z M32.9,32c-0.9,0.6-1.8,1.3-2.8,2c-0.7,0.5-1.4,1-2.2,1.5c0.3,0.7,0.7,1.3,1,2c3.3,0,6.6,0,10,0
	c0-3,0-5.9,0-9C36.8,28.5,34.6,30.8,32.9,32z M33,41.5c1,2,1,2,1,2L33,41.5z M33.9,49c-1.3,0.2-2.6,0.3-3.9,0.5c0,1.7,0,3.3,0,5
	c3,0,5.9,0,9,0c0-2,0-4,0-6C37.3,48.5,35.6,48.7,33.9,49z"/>
</svg>
