<?xml version="1.0" encoding="utf-8"?>
<!-- Generator: Adobe Illustrator 25.4.1, SVG Export Plug-In . SVG Version: 6.00 Build 0)  -->
<svg version="1.1" id="Layer_1" xmlns="http://www.w3.org/2000/svg" xmlns:xlink="http://www.w3.org/1999/xlink" x="0px" y="0px"
	 viewBox="0 0 62.3 63.6" style="enable-background:new 0 0 62.3 63.6;" xml:space="preserve">
<path d="M6.4,0c1,0,1.9,0,2.9,0c1.1,0,2.2,0,3.3,0c1.8,0,1.8,0,3.6,0c1.2,0,2.4,0,3.6,0c3.8,0,7.7,0,11.5,0c2.6,0,5.2,0,7.8,0
	c6.4,0,12.8,0,19.1,0c0.2,0.8,0.4,1.7,0.6,2.6c0.3,1.1,0.5,2.2,0.8,3.3c0.3,1.1,0.5,2.2,0.8,3.3c0.6,2.7,0.6,2.7,1.8,4.8
	c0.1,1.9,0.1,3.8,0.1,5.6c0,1,0,2,0,3c0,0.8,0,1.5,0,2.3c-2,1-2,1-4,2c0,8.6,0,17.2,0,26c1.3,0.3,2.6,0.7,4,1c0,3,0,5.9,0,9
	c-20.5,0-40.9,0-62,0c0-3,0-5.9,0-9c1.5-0.5,1.5-0.5,3-1c-0.3-8.6-0.7-17.2-1-26c-0.7-0.3-1.3-0.7-2-1c-0.1-2.1-0.1-4.1-0.1-6.2
	c0-1.1,0-2.3-0.1-3.5c0.2-3.3,0.9-5.4,2.2-8.3c0.3-2.3,0.7-4.7,1-7C4.2,0.1,4.2,0.1,6.4,0z M7.2,5.1c0,0.3,0,0.7,0,1
	c15.5,0,31,0,47,0c0-0.3,0-0.7,0-1C48.3,5,42.4,4.8,36.5,4.6c-2-0.1-4-0.1-6-0.2c-2.9-0.1-5.8-0.2-8.6-0.2c-0.9,0-1.8-0.1-2.7-0.1
	C15,4.1,11.2,4,7.2,5.1z M6.2,11.1c-0.3,1.3-0.7,2.6-1,4c1.3-0.3,2.6-0.7,4-1c0-1,0-2,0-3C8.2,11.1,7.2,11.1,6.2,11.1z M14.2,11.1
	c-0.3,1.3-0.7,2.6-1,4c1.3,0,2.6,0,4,0c0-1.3,0-2.6,0-4C16.2,11.1,15.2,11.1,14.2,11.1z M22.2,11.1c-0.3,1.3-0.7,2.6-1,4
	c1.3,0,2.6,0,4,0c0-1.3,0-2.6,0-4C24.2,11.1,23.2,11.1,22.2,11.1z M29.2,11.1c0,1.3,0,2.6,0,4c1.3,0,2.6,0,4,0c-0.3-1.3-0.7-2.6-1-4
	C31.2,11.1,30.2,11.1,29.2,11.1z M37.2,11.1c0,1.3,0,2.6,0,4c1.3-0.3,2.6-0.7,4-1c-0.3-1-0.7-2-1-3C39.2,11.1,38.2,11.1,37.2,11.1z
	 M45.2,11.1c0,1.3,0,2.6,0,4c1.3-0.3,2.6-0.7,4-1c-0.3-1-0.7-2-1-3C47.2,11.1,46.2,11.1,45.2,11.1z M53.2,11.1c0.3,1.3,0.7,2.6,1,4
	c1-0.3,2-0.7,3-1c-0.7-1-1.3-2-2-3C54.5,11.1,53.9,11.1,53.2,11.1z M3.2,20.1c0.7,1.3,1.3,2.6,2,4c1-1,2-2,3-3c0-0.3,0-0.7,0-1
	C6.5,20.1,4.9,20.1,3.2,20.1z M12.2,20.1c0.7,1.3,1.3,2.6,2,4c0.7-1.3,1.3-2.6,2-4C14.9,20.1,13.6,20.1,12.2,20.1z M21.2,20.1
	c0.3,1.3,0.7,2.6,1,4c1-1.3,2-2.6,3-4C23.9,20.1,22.6,20.1,21.2,20.1z M29.2,20.1c0,1,0,2,0,3c1.3-0.3,2.6-0.7,4-1c0-0.7,0-1.3,0-2
	C31.9,20.1,30.6,20.1,29.2,20.1z M38.2,20.1c0.3,1.3,0.7,2.6,1,4c0.7-1.3,1.3-2.6,2-4C40.2,20.1,39.2,20.1,38.2,20.1z M46.2,20.1
	c0.7,1.3,1.3,2.6,2,4c0.7-1.3,1.3-2.6,2-4C48.9,20.1,47.6,20.1,46.2,20.1z M54.2,20.1c0.7,1.3,1.3,2.6,2,4c0.7-1.3,1.3-2.6,2-4
	C56.9,20.1,55.6,20.1,54.2,20.1z M9.2,26.1c-1,1.5-1,1.5-2,3c15.6,1.4,31.3,1.1,47,1c0-1,0-2,0-3c-2,0-4,0.1-6,0.1
	c-2-0.1-2-0.1-5-1.1c-2,0.3-4,0.7-6,1c-3.9,0.2-7.3,0.2-11-1c-2,0.3-4,0.7-6,1c-0.7-0.3-1.3-0.7-2-1c-1,0.2-1.9,0.3-2.9,0.5
	C12.2,27.1,12.2,27.1,9.2,26.1z M12.2,34.1c-0.3,6.3-0.7,12.5-1,19c2.6,0,5.3,0,8,0c0-2.3,0-4.6,0-7c-1-0.3-2-0.7-3-1
	c0-1.3,0-2.6,0-4c1-0.3,2-0.7,3-1c0-2,0-4,0-6C16.9,34.1,14.6,34.1,12.2,34.1z M27.2,34.1c0,4,0,7.9,0,12c7.6,0,15.2,0,23,0
	c-0.3-4-0.7-7.9-1-12C41.6,33.3,34.8,33.1,27.2,34.1z M53.2,50.1c-1,0.5-1,0.5-2,1c-2.1,0.1-4.2,0.1-6.3,0.1c-1.3,0-2.5,0-3.8,0
	c-1.3,0-2.6,0-4,0c-1.3,0-2.7,0-4,0c-3.3,0-6.6,0-9.9,0c0,0.7,0,1.3,0,2c10.2,0,20.5,0,31,0C53.9,52.1,53.5,51.1,53.2,50.1z"/>
</svg>
