<?xml version="1.0" encoding="UTF-8" standalone="no"?> <svg  viewBox="0 0 512 512"  xmlns="http://www.w3.org/2000/svg">
<path d="M430.927 465.344C426.631 464.387 422.206 464.148 417.832 464.636L287.26 479.144C283.837 479.521 280.374 479.158 277.104 478.08L371.047 439.397C372.141 438.947 373.122 438.259 373.918 437.383C374.715 436.508 375.307 435.466 375.652 434.334C375.998 433.202 376.088 432.007 375.916 430.836C375.743 429.665 375.314 428.547 374.657 427.562L370.255 420.958C367.222 416.419 363.29 412.551 358.703 409.593L363.579 407.155C365.191 406.349 366.483 405.022 367.247 403.39C368.011 401.758 368.201 399.916 367.787 398.162C367.373 396.408 366.379 394.845 364.965 393.727C363.552 392.608 361.803 392 360.001 392H328.001C323.039 391.994 318.201 390.453 314.149 387.589C310.098 384.724 307.032 380.676 305.372 376H372.776C378.225 376.007 383.51 377.861 387.769 381.259L408.653 397.967C412.748 401.261 417.455 403.711 422.502 405.173C427.55 406.636 432.837 407.083 438.059 406.487L496.885 399.951L495.117 384.049L448.001 389.284V304C448.001 301.878 447.158 299.843 445.658 298.343C444.158 296.843 442.123 296 440.001 296H72.001C69.8793 296 67.8444 296.843 66.3441 298.343C64.8439 299.843 64.001 301.878 64.001 304V389.284L16.8848 384.049L15.1172 399.951L73.9434 406.487C79.1648 407.082 84.4523 406.635 89.4999 405.173C94.5475 403.71 99.2549 401.261 103.35 397.967L124.232 381.26C128.491 377.861 133.777 376.007 139.226 376H206.63C204.97 380.676 201.904 384.724 197.853 387.589C193.801 390.453 188.963 391.994 184.001 392H152.001C150.199 392 148.449 392.608 147.036 393.727C145.623 394.845 144.629 396.408 144.215 398.162C143.801 399.916 143.991 401.758 144.755 403.39C145.519 405.023 146.811 406.349 148.423 407.155L212.423 439.155C213.959 439.923 215.701 440.176 217.392 439.878L332.803 419.512C337.087 418.756 341.495 419.179 345.558 420.735C349.62 422.291 353.183 424.921 355.866 428.345L236.53 477.483C232.802 479.016 228.749 479.587 224.742 479.144L94.17 464.636C89.7959 464.148 85.3712 464.387 81.0752 465.344L14.2656 480.19L17.7363 495.81L84.5459 480.963C87.1233 480.389 89.7781 480.245 92.4023 480.539L222.975 495.046C229.652 495.784 236.408 494.832 242.622 492.278L256.001 486.769L269.38 492.278C275.594 494.832 282.35 495.784 289.027 495.046L419.6 480.539C422.224 480.245 424.879 480.388 427.456 480.963L494.266 495.81L497.736 480.19L430.927 465.344ZM316.14 406.205L296.001 409.758V391.972C301.055 398.711 308.1 403.69 316.14 406.205V406.205ZM232.001 312H280.001V412.582L232.001 421.053V312ZM397.764 368.765C390.665 363.102 381.857 360.012 372.776 360H296.001V344H432.001V390.675C427.122 390.353 422.46 388.537 418.648 385.473L397.764 368.765ZM432.001 328H296.001V312H432.001V328ZM216.001 312V328H80.001V312H216.001ZM139.226 360C130.145 360.012 121.336 363.102 114.237 368.765L93.3545 385.473C89.5426 388.536 84.8806 390.353 80.001 390.676V344H216.001V360H139.226ZM185.809 407.959C191.711 407.69 197.48 406.115 202.701 403.348C207.922 400.581 212.464 396.691 216.001 391.958V423.056L185.809 407.959Z" />
<path d="M24 280H152C154.122 280 156.157 279.157 157.657 277.657C159.157 276.157 160 274.122 160 272V160C160 158.758 159.711 157.533 159.155 156.423C158.6 155.312 157.793 154.345 156.8 153.6L92.7998 105.6C91.4152 104.562 89.731 104 88 104C86.269 104 84.5848 104.562 83.2002 105.6L19.2002 153.6C18.2066 154.345 17.4001 155.312 16.8446 156.423C16.2892 157.533 16 158.758 16 160V272C16 274.122 16.8429 276.157 18.3432 277.657C19.8435 279.157 21.8783 280 24 280V280ZM104 264H72V200H104V264ZM32 164L88 122L144 164V264H120V192C120 189.879 119.157 187.844 117.657 186.343C116.157 184.843 114.122 184 112 184H64C61.8783 184 59.8435 184.843 58.3432 186.343C56.8429 187.844 56 189.879 56 192V264H32V164Z" />
<path d="M400 120V104H384V120H376C369.637 120.007 363.537 122.538 359.037 127.037C354.538 131.537 352.007 137.637 352 144V256C352.007 262.363 354.538 268.463 359.037 272.963C363.537 277.462 369.637 279.993 376 280H472C478.363 279.993 484.463 277.462 488.963 272.963C493.462 268.463 495.993 262.363 496 256V144C495.993 137.637 493.462 131.537 488.963 127.037C484.463 122.538 478.363 120.007 472 120H464V104H448V120H400ZM472 264H376C373.879 263.998 371.846 263.154 370.346 261.654C368.846 260.154 368.002 258.121 368 256V184H480V256C479.998 258.121 479.154 260.154 477.654 261.654C476.154 263.154 474.121 263.998 472 264V264ZM472 136C474.121 136.002 476.154 136.846 477.654 138.346C479.154 139.846 479.998 141.879 480 144V168H368V144C368.002 141.879 368.846 139.846 370.346 138.346C371.846 136.846 373.879 136.002 376 136H384V152H400V136H448V152H464V136H472Z" />
<path d="M265.217 43.7598L225.217 107.76L238.785 116.24L278.785 52.2401L265.217 43.7598Z" />
<path d="M240 48H224V64H240V48Z" />
<path d="M280 96H264V112H280V96Z" />
<path d="M256 208C300.112 208 336 179.29 336 144C335.996 138.561 335.144 133.155 333.476 127.978C336.841 117.577 336.841 106.379 333.476 95.9781C335.147 90.8167 335.999 85.4252 336 80C336 44.7104 300.112 16 256 16C211.888 16 176 44.7104 176 80C176.001 85.4252 176.853 90.8167 178.524 95.9781C175.159 106.379 175.159 117.577 178.524 127.978C176.856 133.155 176.004 138.561 176 144C176 179.29 211.888 208 256 208ZM256 192C223.911 192 197.27 174.195 192.699 151.067C207.343 166.217 230.264 176 256 176C281.736 176 304.657 166.217 319.301 151.067C314.73 174.195 288.089 192 256 192ZM256 32C291.29 32 320 53.5327 320 80C320 106.467 291.29 128 256 128C220.71 128 192 106.467 192 80C192 53.5327 220.71 32 256 32ZM256 144C281.736 144 304.657 134.217 319.301 119.067C314.73 142.195 288.089 160 256 160C223.911 160 197.27 142.195 192.699 119.067C207.343 134.217 230.264 144 256 144Z" />
<path d="M104 152H72V168H104V152Z" />
<path d="M400 200H384V216H400V200Z" />
<path d="M432 200H416V216H432V200Z" />
<path d="M464 200H448V216H464V200Z" />
<path d="M400 232H384V248H400V232Z" />
<path d="M432 232H416V248H432V232Z" />
<path d="M464 232H448V248H464V232Z" />
<path d="M418.209 101.519L429.793 90.4824C406.525 65.968 378.318 46.6723 347.037 33.8711L340.965 48.6738C370.162 60.6238 396.491 78.6357 418.209 101.519V101.519Z" />
<path d="M171.037 48.6738L164.965 33.8711C137.339 45.1943 112.076 61.5889 90.4824 82.208L101.52 93.793C121.673 74.5467 145.252 59.2434 171.037 48.6738Z" />
</svg>
