<?xml version="1.0" encoding="utf-8"?>
<!-- Generator: Adobe Illustrator 25.4.1, SVG Export Plug-In . SVG Version: 6.00 Build 0)  -->
<svg version="1.1" id="Layer_1" xmlns="http://www.w3.org/2000/svg" xmlns:xlink="http://www.w3.org/1999/xlink" x="0px" y="0px"
	 viewBox="0 0 65.2 61.9" style="enable-background:new 0 0 65.2 61.9;" xml:space="preserve">
<path d="M0,0.6c6.5-0.1,13-0.2,19.8-0.3c2.1,0,4.1-0.1,6.2-0.1c1.6,0,3.3,0,4.9,0c0.8,0,1.7-0.1,2.6-0.1c6,0,6,0,9.1,3
	c2.4,4.1,2.6,6.3,2.6,11.1c0,1.3,0,2.6,0,3.9c0,1.4,0,2.8,0,4.1c0,1.4,0,2.8,0,4.2c0,3.4,0,6.8,0,10.2c0.9,0.3,1.8,0.6,2.8,0.9
	c3.2,1.1,3.2,1.1,6.7,2.7c3.6,1.4,6.7,2,10.6,2.4c0.3,6.7,0.5,12.2-3,18c-1.9,1.1-1.9,1.1-4,1c-2.8-0.9-2.8-0.9-5-2c0-0.7,0-1.3,0-2
	c-0.5,0.3-1.1,0.6-1.6,0.9c-6.1,3-11.1,3.7-17.9,3.5c-0.9,0-1.7,0-2.6,0c-3.2,0-6.3-0.1-9.5-0.1C14.4,61.7,7.3,61.7,0,61.6
	C0,41.4,0,21.3,0,0.6z M4,3.6c0,17.8,0,35.6,0,54c2,0,4,0,6,0c-0.7-0.3-1.3-0.7-2-1c0-1.3,0-2.6,0-4c9.2,0,18.5,0,28,0
	c-0.3,1.7-0.7,3.3-1,5c2-0.5,2-0.5,4-1c-0.7-2.3-1.3-4.6-2-7c1-0.3,2-0.7,3-1c0.1-4.1,0.1-8.1,0.2-12.2c0-1.4,0-2.8,0.1-4.2
	c0-2,0.1-4,0.1-6c0-1.8,0-1.8,0-3.6c-0.1-3-0.1-3-1.6-4.9c-2.7-1.8-5.5-1.8-8.7-2.1c0-1.3,0-2.6,0-4c0.7,0,1.3,0,2,0
	c1.4-2.5,1.4-2.5,1-8C23.4,3.6,13.9,3.6,4,3.6z M38,8.6c0,1.3,0,2.6,0,4c0.7,0,1.3,0,2,0c0-1.3,0-2.6,0-4C39.3,8.6,38.7,8.6,38,8.6z
	 M45,42.6c0,2,0,4,0,6c1,0.4,1,0.4,1.9,0.9c2.1,1.1,2.1,1.1,3.1,3.1c1.3,0,2.6,0,4,0c0.3-2,0.7-4,1-6C50.5,43.2,50.5,43.2,45,42.6z
	 M59,51.6c1,2,1,2,1,2L59,51.6z"/>
<path d="M11,21.6c2.8,0.2,2.8,0.2,6,1c2.5,2.9,3,4.9,3.5,8.7c0.2,1.1,0.3,2.2,0.5,3.3c2.7,2.1,2.7,2.1,5.3,2.4
	c3.2,0.7,5.8,2,8.7,3.6c0.4,6.5,0.4,6.5-1.2,8.7c-2.8,2-5,1.4-8.3,0.9c-7.1-1.8-11.5-6-15.2-12.2C8.4,34.3,6.9,30.7,7,26.6
	C8.9,23.5,8.9,23.5,11,21.6z M13,26.6c-1.2,3.6-0.5,4.6,1,8c0.3,0,0.7,0,1,0c0.2-2.9,0.2-2.9,0-6C14.3,27.9,13.7,27.2,13,26.6z
	 M22,42.6c2.6,2.6,4.5,2.5,8,3c-0.3-1-0.7-2-1-3C26.7,42.6,24.4,42.6,22,42.6z"/>
<path d="M23,19.6c3.5,0,6,0.2,8.8,2.4c3.1,3.3,4.1,5,4.6,9.6c-0.1,1-0.2,2-0.4,3.1c-1.3,0-2.6,0-4,0c-1.3,0.3-2.7,0.6-4,1
	c-0.4-0.8-0.8-1.6-1.2-2.4C25,30.5,24,29.7,21,28.6c0.2-0.6,0.3-1.2,0.5-1.8c0.6-2.5,0.6-2.5,0.5-6.2C22.3,20.2,22.7,19.9,23,19.6z"
	/>
<path d="M5,11.6c7.9,0,15.8,0,24,0c0,1.6,0,3.3,0,5c-7.9,0-15.8,0-24,0C5,14.9,5,13.3,5,11.6z"/>
</svg>
