<svg width="101" height="95" viewBox="0 0 101 95" fill="none" xmlns="http://www.w3.org/2000/svg">
<path d="M18.7481 2.52188C19.3408 1.82898 20.0765 1.2727 20.9047 0.8913C21.7329 0.509902 22.6338 0.31244 23.5456 0.3125H77.4544C78.3662 0.31244 79.2671 0.509902 80.0953 0.8913C80.9235 1.2727 81.6592 1.82898 82.2519 2.52188L98.7212 21.7371C100.192 23.4531 101 25.6383 101 27.8981V29.5078C101 32.6324 100.024 35.6789 98.2087 38.2217C96.393 40.7645 93.8282 42.6765 90.8727 43.6904C87.9172 44.7043 84.7188 44.7694 81.7245 43.8768C78.7302 42.9841 76.0897 41.1782 74.1719 38.7114C72.7717 40.5157 70.9771 41.9755 68.9255 42.9788C66.8738 43.9822 64.6198 44.5026 62.3359 44.5C60.0521 44.5026 57.798 43.9822 55.7464 42.9788C53.6948 41.9755 51.9002 40.5157 50.5 38.7114C49.0998 40.5157 47.3052 41.9755 45.2536 42.9788C43.202 43.9822 40.9479 44.5026 38.6641 44.5C36.3802 44.5026 34.1262 43.9822 32.0746 42.9788C30.0229 41.9755 28.2283 40.5157 26.8281 38.7114C24.9103 41.1782 22.2698 42.9841 19.2755 43.8768C16.2812 44.7694 13.0828 44.7043 10.1273 43.6904C7.17184 42.6765 4.60701 40.7645 2.79128 38.2217C0.975545 35.6789 -0.000344653 32.6324 9.13074e-08 29.5078V27.8981C7.95851e-05 25.6383 0.808357 23.4531 2.27881 21.7371L18.7481 2.52188ZM29.9844 29.5078C29.9844 31.8098 30.8988 34.0175 32.5266 35.6453C34.1544 37.273 36.3621 38.1875 38.6641 38.1875C40.9661 38.1875 43.1738 37.273 44.8015 35.6453C46.4293 34.0175 47.3438 31.8098 47.3438 29.5078C47.3438 28.6707 47.6763 27.8679 48.2682 27.276C48.8601 26.6841 49.6629 26.3516 50.5 26.3516C51.3371 26.3516 52.1399 26.6841 52.7318 27.276C53.3237 27.8679 53.6562 28.6707 53.6562 29.5078C53.6562 31.8098 54.5707 34.0175 56.1985 35.6453C57.8262 37.273 60.0339 38.1875 62.3359 38.1875C64.6379 38.1875 66.8456 37.273 68.4734 35.6453C70.1012 34.0175 71.0156 31.8098 71.0156 29.5078C71.0156 28.6707 71.3482 27.8679 71.9401 27.276C72.532 26.6841 73.3348 26.3516 74.1719 26.3516C75.009 26.3516 75.8118 26.6841 76.4037 27.276C76.9956 27.8679 77.3281 28.6707 77.3281 29.5078C77.3281 31.8098 78.2426 34.0175 79.8703 35.6453C81.4981 37.273 83.7058 38.1875 86.0078 38.1875C88.3098 38.1875 90.5175 37.273 92.1453 35.6453C93.773 34.0175 94.6875 31.8098 94.6875 29.5078V27.8981C94.6876 27.1458 94.4189 26.4183 93.93 25.8466L77.4544 6.625H23.5456L7.07 25.8466C6.58108 26.4183 6.31244 27.1458 6.3125 27.8981V29.5078C6.3125 31.8098 7.22696 34.0175 8.85472 35.6453C10.4825 37.273 12.6902 38.1875 14.9922 38.1875C17.2942 38.1875 19.5019 37.273 21.1297 35.6453C22.7574 34.0175 23.6719 31.8098 23.6719 29.5078C23.6719 28.6707 24.0044 27.8679 24.5963 27.276C25.1882 26.6841 25.991 26.3516 26.8281 26.3516C27.6652 26.3516 28.468 26.6841 29.0599 27.276C29.6518 27.8679 29.9844 28.6707 29.9844 29.5078ZM9.46875 47.6562C10.3058 47.6562 11.1086 47.9888 11.7006 48.5807C12.2925 49.1726 12.625 49.9754 12.625 50.8125V88.6875H18.9375V57.125C18.9375 55.4508 19.6026 53.8452 20.7864 52.6614C21.9702 51.4776 23.5758 50.8125 25.25 50.8125H44.1875C45.8617 50.8125 47.4673 51.4776 48.6511 52.6614C49.8349 53.8452 50.5 55.4508 50.5 57.125V88.6875H88.375V50.8125C88.375 49.9754 88.7075 49.1726 89.2994 48.5807C89.8913 47.9888 90.6942 47.6562 91.5312 47.6562C92.3683 47.6562 93.1712 47.9888 93.7631 48.5807C94.355 49.1726 94.6875 49.9754 94.6875 50.8125V88.6875H97.8438C98.6808 88.6875 99.4837 89.02 100.076 89.6119C100.667 90.2038 101 91.0067 101 91.8438C101 92.6808 100.667 93.4837 100.076 94.0756C99.4837 94.6675 98.6808 95 97.8438 95H3.15625C2.31916 95 1.51636 94.6675 0.924444 94.0756C0.332533 93.4837 9.13074e-08 92.6808 9.13074e-08 91.8438C9.13074e-08 91.0067 0.332533 90.2038 0.924444 89.6119C1.51636 89.02 2.31916 88.6875 3.15625 88.6875H6.3125V50.8125C6.3125 49.9754 6.64503 49.1726 7.23694 48.5807C7.82886 47.9888 8.63166 47.6562 9.46875 47.6562ZM25.25 88.6875H44.1875V57.125H25.25V88.6875ZM56.8125 57.125C56.8125 55.4508 57.4776 53.8452 58.6614 52.6614C59.8452 51.4776 61.4508 50.8125 63.125 50.8125H75.75C77.4242 50.8125 79.0298 51.4776 80.2136 52.6614C81.3974 53.8452 82.0625 55.4508 82.0625 57.125V76.0625C82.0625 77.7367 81.3974 79.3423 80.2136 80.5261C79.0298 81.7099 77.4242 82.375 75.75 82.375H63.125C61.4508 82.375 59.8452 81.7099 58.6614 80.5261C57.4776 79.3423 56.8125 77.7367 56.8125 76.0625V57.125ZM75.75 57.125H63.125V76.0625H75.75V57.125Z" />
</svg>
