<?xml version="1.0" encoding="utf-8"?>
<!-- Generator: Adobe Illustrator 25.4.1, SVG Export Plug-In . SVG Version: 6.00 Build 0)  -->
<svg version="1.1" id="Layer_1" xmlns="http://www.w3.org/2000/svg" xmlns:xlink="http://www.w3.org/1999/xlink" x="0px" y="0px"
	 viewBox="0 0 54 60.5" style="enable-background:new 0 0 54 60.5;" xml:space="preserve">
<path d="M26.3,0c1.1,0,1.1,0,2.1,0c9,0.3,14.3,4.3,20.5,10.4c5.2,7,5,14.2,5,22.5c0,2.1,0,4.3,0.1,6.4c0,1.4,0,2.7,0,4.1
	c0,1.8,0,1.8,0,3.7c-0.7,4.7-3,7-6.6,10.1c-3.8,1.6-7.4,1.7-11.5,1.8c-1.2,0.2-1.2,0.2-2.4,0.4c-0.7,1-1.3,2-2,3
	c-3.4,0.8-6.6,0.7-10,0c-2.7-2.6-2.7-2.6-4-6c-0.1-4.3,0.3-6.2,3.2-9.4c3.3-1.8,5.1-2.1,8.8-1.6c2.4,1.4,2.4,1.4,4,3
	c0,0.7,0,1.3,0,2c4.5-0.5,4.5-0.5,9-1c-0.8-0.8-1.6-1.6-2.4-2.4c-4.4-4.5-4-8.3-3.9-14.4c0.3-3.1,0.7-4.6,2.6-7
	c2.8-2.2,2.8-2.2,6.8-2.2c-2.4-5.8-4.8-9.4-10-13c-5.9-2-12.6-2-18.4,0.6c-4.9,2.8-7.8,7.1-9.6,12.4c0.7,0.1,1.5,0.2,2.2,0.2
	c3.4,0.9,4.6,1.9,6.8,4.8c0.6,3.5,0.6,3.5,0.6,7.4c0,1.3,0,2.6,0.1,3.9c-0.8,4.5-2.1,5.9-5.6,8.6c-3,0.8-4.8,0.4-8,0
	c-1.7-1.1-1.7-1.1-3-3c-0.6-4.1-0.5-8.2-0.4-12.3c0-2,0-4-0.1-6c0-1.3,0-2.6,0-3.9c0-1.2,0-2.3,0-3.5c0.9-5.6,4.2-9.4,8.4-13
	C9,6.3,9.7,5.7,10.3,5.1C15.5,1.3,19.9-0.1,26.3,0z M6.5,31.5c0,3,0,5.9,0,9c0.7,0,1.3,0,2,0c0-3,0-5.9,0-9
	C7.8,31.5,7.2,31.5,6.5,31.5z M45.5,31.5c0,3,0,5.9,0,9c0.3,0,0.7,0,1,0c0-3,0-5.9,0-9C46.2,31.5,45.8,31.5,45.5,31.5z"/>
</svg>
