<?xml version="1.0" encoding="utf-8"?>
<!-- Generator: Adobe Illustrator 25.4.1, SVG Export Plug-In . SVG Version: 6.00 Build 0)  -->
<svg version="1.1" id="Layer_1" xmlns="http://www.w3.org/2000/svg" xmlns:xlink="http://www.w3.org/1999/xlink" x="0px" y="0px"
	 viewBox="0 0 60.4 60.4" style="enable-background:new 0 0 60.4 60.4;" xml:space="preserve">
<path d="M31.2,0c2.8-0.6,4.2-0.7,7,0c2.8,2.1,5.2,4.3,7.7,6.7c2.2,2.3,2.2,2.3,4.6,3.9c1.8,1.3,1.8,1.3,2.7,3.2
	c0.1,4.3-2.9,7.1-5.6,10c-1,1-2.1,2-3.1,2.9c-0.5,0.5-1,1-1.5,1.5c-2.6,2.5-4.3,3.6-7.9,4.1C32.2,32,32.2,32,30.2,30
	c-0.1-2.6-0.1-2.6,0-5c-2.4,0.4-4.8,0.8-7.1,1.2c-0.7,0.1-1.3,0.2-2,0.3c-4.8,0.9-7.9,2.6-11.9,5.4c-0.7,0-1.3,0-2,0
	c-0.7,1.3-1.3,2.6-2,4c-1.6-0.3-3.3-0.7-5-1c-0.6-6.8,0.1-10.4,4.2-15.9c6-7,13.1-11.6,22.3-12.8c1.7-0.1,1.7-0.1,3.4-0.2
	C30.5,4,30.9,2,31.2,0z M37.2,9c-0.7,0.7-1.3,1.3-2,2c-1.8,0.3-3.7,0.6-5.5,0.8c-6.4,1-11.4,3.3-16.5,7.2c-0.3,0.7-0.7,1.3-1,2
	c1-0.2,2-0.3,3-0.5c3.9-0.6,7.7-0.7,11.7-0.8c1.3,0,2.6-0.1,3.9-0.1c3.6,0.3,4.9,0.9,7.4,3.3c2.3-2,4.6-4,7-6c-2-4-3.4-5.4-7-8
	C37.9,9,37.5,9,37.2,9z"/>
<path d="M58.4,24.3c0.6,0.2,1.2,0.4,1.8,0.7c0.6,5.9,0.2,10.1-3.3,15c-6.1,7.2-12.4,11.7-21.7,14c-3.7,0.2-3.7,0.2-6,0c0,2,0,4,0,6
	c-6.8,0.7-6.8,0.7-9.9-1.1c-1.8-1.5-3.4-3-5.1-4.7c-0.6-0.5-1.2-1.1-1.7-1.6C7.7,48,7.7,48,7.2,44c1.9-4.2,4.9-7.1,8.3-10.2
	c0.9-0.9,1.8-1.7,2.8-2.6c3.1-2.3,5.1-2.8,8.9-3.1c3,4.9,3,4.9,3,6c7.9,0.5,14.7-0.6,21-5.6c1.2-1.1,2.3-2.2,3.4-3.3
	C56.2,24,56.2,24,58.4,24.3z M22.2,37c-2.3,2.3-4.6,4.6-7,7c2.2,4.4,3.9,5.5,8,8c0.4-0.5,0.8-1,1.2-1.4c2.3-2,3.9-2.1,6.9-2.4
	c5.7-0.9,10.3-2.7,14.9-6.1c0.7-1,1.3-2,2-3c-0.6,0.1-1.2,0.3-1.9,0.4c-15.2,3.3-15.2,3.3-22.1-0.4C23.5,38.3,22.9,37.7,22.2,37z"/>
</svg>
