<svg  viewBox="0 0 25 23"  xmlns="http://www.w3.org/2000/svg">
<path d="M24.3396 0.430209C24.0829 0.214889 23.7734 0.0738776 23.4439 0.0221251C23.1144 -0.0296274 22.7773 0.00980786 22.4681 0.13625L1.13869 8.85021C0.794014 8.99355 0.500571 9.23959 0.297313 9.55566C0.0940557 9.87174 -0.00940297 10.2429 0.000671707 10.6199C0.0107464 10.9969 0.133878 11.3618 0.35372 11.6663C0.573563 11.9708 0.879718 12.2004 1.23154 12.3247L5.83386 13.9415L8.32787 22.2856C8.33263 22.3025 8.34811 22.3133 8.35525 22.329C8.38095 22.3955 8.41847 22.4568 8.46597 22.5097C8.53813 22.5912 8.63128 22.6509 8.73501 22.6819C8.74691 22.6868 8.75525 22.6976 8.76715 22.7H8.77429L8.77787 22.7012C8.86996 22.7213 8.96567 22.7163 9.05524 22.6868C9.06477 22.6844 9.07429 22.6844 9.085 22.6807C9.17101 22.6502 9.24884 22.5999 9.31238 22.5338C9.31952 22.5253 9.33143 22.5241 9.33857 22.5169L12.9254 18.5099L18.1599 22.6121C18.4777 22.8639 18.8694 23 19.273 23C20.1468 23 20.9003 22.3808 21.0801 21.517L24.9634 2.21926C25.0292 1.89166 25.006 1.55211 24.8961 1.23682C24.7863 0.921531 24.5939 0.642334 24.3396 0.429004M9.62905 15.5257L8.78739 19.6665L7.03146 13.7897L15.7397 9.19958L9.79095 15.2209C9.70857 15.3042 9.65226 15.4102 9.62905 15.5257ZM19.9134 21.2748C19.8911 21.384 19.8413 21.4856 19.769 21.5698C19.6967 21.654 19.6041 21.7179 19.5003 21.7555C19.3991 21.7949 19.2894 21.807 19.1821 21.7905C19.0748 21.7741 18.9736 21.7296 18.8884 21.6615L13.2183 17.2172C13.0997 17.1246 12.9511 17.0806 12.8019 17.094C12.6528 17.1074 12.5141 17.1772 12.4135 17.2895L9.91714 20.0737L10.7576 15.945L19.3158 7.28283C19.416 7.18107 19.477 7.0464 19.4878 6.90314C19.4985 6.75987 19.4583 6.61744 19.3744 6.50155C19.2904 6.38566 19.1684 6.30393 19.0301 6.27112C18.8919 6.23832 18.7467 6.25659 18.6206 6.32264L6.28385 12.8259L1.62082 11.185C1.49719 11.1437 1.38935 11.0644 1.31233 10.9582C1.2353 10.8519 1.19292 10.724 1.19107 10.5923C1.18514 10.4594 1.22023 10.3279 1.29148 10.216C1.36272 10.1042 1.4666 10.0176 1.58868 9.96822L22.9146 1.25426C23.0239 1.20727 23.1439 1.19207 23.2613 1.21038C23.3786 1.22868 23.4886 1.27976 23.5788 1.35787C23.6686 1.43134 23.7363 1.52861 23.7746 1.63881C23.8129 1.74901 23.8201 1.86781 23.7955 1.98193L19.9134 21.2748Z" />
</svg>
