<?xml version="1.0" encoding="utf-8"?>
<!-- Generator: Adobe Illustrator 25.4.1, SVG Export Plug-In . SVG Version: 6.00 Build 0)  -->
<svg version="1.1" id="Layer_1" xmlns="http://www.w3.org/2000/svg" xmlns:xlink="http://www.w3.org/1999/xlink" x="0px" y="0px"
	 viewBox="0 0 60 59.2" style="enable-background:new 0 0 60 59.2;" xml:space="preserve">
<path d="M59,0.2c0.9,2.6,0.9,2.6,1,6c-3,3.8-7.3,6.8-12,8c-0.7-0.3-1.3-0.7-2-1c0,0.7,0,1.5,0.1,2.2c-0.1,2.8-0.1,2.8-0.7,4.8
	c-0.5,2.6,0.3,3.8,1.6,5.9c1,0,2,0,3,0c0,3.3,0,6.6,0,10c2.6,0,5.3,0,8,0c0,4.6,0,9.2,0,14c-3.5,0.5-3.5,0.5-7,1
	c-0.3,2.6-0.7,5.3-1,8c-16.5,0-33,0-50,0c0-4.3,0-8.6,0-13c3-0.5,3-0.5,6-1c0-1.3,0-2.6,0-4c-2,0-4,0-6,0c0-5,0-9.9,0-15
	c7.9,0,15.8,0,24,0c0.7-2,1.3-4,2-6c0.7-1.6,1.5-3.2,2.4-4.8c0.4-0.8,0.8-1.5,1.2-2.3c1.4-1.9,1.4-1.9,3.4-2.8c2-0.1,2-0.1,4.8,2.4
	c0.7,0.8,1.5,1.7,2.2,2.6c0.7-1.6,1.3-3.3,2-5c0.7,0,1.3,0,2,0c-0.5-1.5-0.5-1.5-1-3C48.2,1.7,51.3-0.8,59,0.2z M34,16.2
	c-0.8,1.2-1.6,2.5-2.4,3.7c-0.5,0.7-0.9,1.4-1.4,2.1c-1.5,2.6-1.5,2.6-2.2,7.2c4.3-0.7,8.6-1.3,13-2c-0.3-1.3-0.7-2.6-1-4
	c-2,0.7-4,1.3-6,2c0.7-2.7,1.3-5.3,2-8C35.3,16.9,34.7,16.5,34,16.2z M19,31.2c0,1.7,0,3.3,0,5c3.6,0,7.3,0,11,0c0-0.7,0-1.3,0-2
	c-1.1,0.1-2.2,0.1-3.4,0.2c-1.2-0.1-2.4-0.1-3.6-0.2c-0.7-1-1.3-2-2-3C20.3,31.2,19.7,31.2,19,31.2z M35,33.2c0,1,0,2,0,3
	c3.3,0,6.6,0,10,0c0-1.7,0-3.3,0-5C41.1,31.2,38.6,31.9,35,33.2z M3,36.2c3.6,0,7.3,0,11,0c0-0.3,0-0.7,0-1
	c-1.3-0.2-2.5-0.4-3.8-0.6c-0.7-0.1-1.4-0.2-2.1-0.4C5.7,34,5.7,34,3,36.2z M12,41.2c-0.3,1.7-0.7,3.3-1,5c3.6,0,7.3,0,11,0
	c0-1.7,0-3.3,0-5C18.7,41.2,15.4,41.2,12,41.2z M27,41.2c0,1.7,0,3.3,0,5c3.6,0,7.3,0,11,0c0-1.7,0-3.3,0-5
	C34.4,41.2,30.7,41.2,27,41.2z M42,41.2c0,1.7,0,3.3,0,5c3.6,0,7.3,0,11,0c0-1.7,0-3.3,0-5C49.4,41.2,45.7,41.2,42,41.2z M3,50.2
	c0,2,0,4,0,6c3.6,0,7.3,0,11,0c0-2,0-4,0-6C10.4,50.2,6.7,50.2,3,50.2z M19,50.2c0,2,0,4,0,6c3.6,0,7.3,0,11,0c0-2,0-4,0-6
	C26.4,50.2,22.7,50.2,19,50.2z M35,51.2c-0.3,1.7-0.7,3.3-1,5c3.6,0,7.3,0,11,0c0-1.7,0-3.3,0-5C41.7,51.2,38.4,51.2,35,51.2z"/>
</svg>
