<svg viewBox="0 0 22 22"  xmlns="http://www.w3.org/2000/svg">
<path d="M18.7049 3.19687C16.6473 1.13437 13.9071 0 10.9951 0C4.98437 0 0.0933036 4.89107 0.0933036 10.9018C0.0933036 12.8219 0.594196 14.6978 1.54688 16.3527L0 22L5.77991 20.4826C7.37098 21.3518 9.16339 21.8085 10.9902 21.8085H10.9951C17.0009 21.8085 22 16.9174 22 10.9067C22 7.99464 20.7625 5.25937 18.7049 3.19687ZM10.9951 19.9719C9.36473 19.9719 7.76875 19.5348 6.37902 18.7098L6.05 18.5134L2.62232 19.4121L3.53571 16.0679L3.31964 15.7241C2.41116 14.2804 1.93482 12.6156 1.93482 10.9018C1.93482 5.90759 6.00089 1.84152 11 1.84152C13.421 1.84152 15.6946 2.78437 17.4036 4.49821C19.1125 6.21205 20.1634 8.48571 20.1585 10.9067C20.1585 15.9058 15.9893 19.9719 10.9951 19.9719ZM15.9647 13.1853C15.6946 13.0478 14.354 12.3897 14.1036 12.3013C13.8531 12.208 13.6714 12.1638 13.4897 12.4388C13.308 12.7138 12.7875 13.3228 12.6254 13.5094C12.4683 13.6911 12.3062 13.7156 12.0362 13.5781C10.4353 12.7777 9.38438 12.1491 8.32857 10.3371C8.04866 9.8558 8.60848 9.89018 9.12902 8.84911C9.21741 8.66741 9.17321 8.51027 9.10446 8.37277C9.03571 8.23527 8.49063 6.89464 8.26473 6.34955C8.04375 5.8192 7.81786 5.89286 7.65089 5.88304C7.49375 5.87321 7.31205 5.87321 7.13036 5.87321C6.94866 5.87321 6.65402 5.94196 6.40357 6.21205C6.15312 6.48705 5.45089 7.14509 5.45089 8.48571C5.45089 9.82634 6.42813 11.1228 6.56071 11.3045C6.69821 11.4862 8.4808 14.2362 11.2161 15.4196C12.9446 16.1661 13.6223 16.2299 14.4866 16.1022C15.0121 16.0237 16.0973 15.4442 16.3232 14.8058C16.5491 14.1674 16.5491 13.6223 16.4804 13.5094C16.4165 13.3866 16.2348 13.3179 15.9647 13.1853Z" />
</svg>
