<svg viewBox="0 0 47 37" xmlns="http://www.w3.org/2000/svg">
<path d="M23.5 0.6875C16.7918 0.6875 10.8638 1.38219 7.24609 1.913C4.25359 2.35119 1.84 4.60447 1.28959 7.58984C0.824687 10.1299 0.34375 13.8456 0.34375 18.5C0.34375 23.1544 0.824687 26.8719 1.28959 29.4102C1.84 32.3955 4.25359 34.6559 7.24609 35.0888C10.8798 35.616 16.8274 36.3125 23.5 36.3125C30.1726 36.3125 36.1219 35.6178 39.7539 35.087C42.7464 34.6559 45.16 32.3955 45.7104 29.4102C46.1753 26.863 46.6562 23.1402 46.6562 18.5C46.6562 13.8598 46.1824 10.137 45.7104 7.58984C45.16 4.60447 42.7464 2.35119 39.7539 1.91122C36.1362 1.38397 30.2064 0.6875 23.5 0.6875ZM23.5 4.25C29.9713 4.25 35.7532 4.91084 39.2534 5.4185C39.9808 5.52247 40.657 5.85261 41.1864 6.36218C41.7158 6.87174 42.0715 7.53492 42.2031 8.25781C42.6342 10.6091 43.0938 14.095 43.0938 18.5C43.0938 22.8979 42.6342 26.3909 42.2031 28.7422C42.0738 29.4661 41.7188 30.1306 41.189 30.6405C40.6592 31.1505 39.9817 31.4799 39.2534 31.5815C35.7372 32.0892 29.9285 32.75 23.5 32.75C17.0697 32.75 11.2539 32.0892 7.74663 31.5815C7.01883 31.4786 6.34201 31.1488 5.81244 30.639C5.28287 30.1293 4.9275 29.4655 4.79688 28.7422C4.36581 26.3909 3.90625 22.9122 3.90625 18.5C3.90625 14.0825 4.36581 10.6091 4.79688 8.25781C4.9275 7.53447 5.28287 6.87073 5.81244 6.36098C6.34201 5.85123 7.01883 5.52144 7.74663 5.4185C11.2397 4.91084 17.0287 4.25 23.5 4.25ZM18.1562 8.31303V28.6887L20.8281 27.1854L33.2969 20.0604L35.9688 18.5L33.2969 16.9414L20.8281 9.81641L18.1562 8.31303ZM21.7188 14.437L28.7885 18.5L21.7188 22.563V14.437Z" />
</svg>
